<svg xmlns="http://www.w3.org/2000/svg" width="225" height="225" viewBox="0 0 225 225" version="1.1"><path d="M -0 112.504 L -0 225.009 112.750 224.754 L 225.500 224.500 225.754 112.250 L 226.009 0 113.004 0 L 0 0 -0 112.504 M 0.483 113 C 0.483 174.875, 0.603 200.188, 0.750 169.250 C 0.897 138.313, 0.897 87.688, 0.750 56.750 C 0.603 25.813, 0.483 51.125, 0.483 113 M 32 62.290 C 32 129.217, 31.882 127.650, 38.007 142.363 C 44.597 158.191, 55.057 172.725, 74 192.374 C 85.545 204.350, 94.689 212.157, 105.762 219.497 C 112.001 223.632, 113.350 224.162, 115.332 223.259 C 121.586 220.409, 140.079 205.059, 153.506 191.573 C 170.298 174.706, 178.914 163.324, 186.111 148.500 C 194.569 131.079, 194.212 134.581, 194.745 63.750 L 195.217 1 113.608 1 L 32 1 32 62.290 M 37.544 66.250 L 37.587 126.500 40.445 134.808 C 45.291 148.893, 56.987 166.916, 71.680 182.937 C 85.318 197.808, 111.224 218.895, 114.372 217.688 C 115.078 217.417, 120.202 213.770, 125.759 209.584 C 154.203 188.158, 176.204 160.722, 186.371 134 C 188.398 128.672, 188.473 126.587, 188.775 67.250 L 189.086 6 113.293 6 L 37.500 6.001 37.544 66.250 M 41.220 69.250 L 41.500 128.500 44.786 136.655 C 48.626 146.185, 56.821 159.593, 64.833 169.457 C 74.376 181.204, 92.975 199.325, 103.332 206.967 L 113.165 214.221 117.832 210.917 C 147.617 189.836, 173.104 159.553, 182.568 134 L 185.345 126.500 185.777 68.250 L 186.209 10 113.574 10 L 40.939 10 41.220 69.250 M 73 136.397 L 73 165.795 79.640 166.951 C 88.273 168.454, 96.859 172.425, 105.250 178.796 L 112 183.920 112 173.460 C 112 164.829, 112.262 163, 113.500 163 C 114.738 163, 115 164.835, 115 173.512 L 115 184.023 120.738 179.349 C 128.943 172.666, 139.510 167.889, 147.510 167.247 L 154 166.726 154 136.742 L 154 106.759 141.750 107.255 C 127.697 107.826, 121.318 109.644, 117.514 114.166 C 116.083 115.866, 115 118.413, 115 120.077 C 115 122.009, 114.491 123, 113.500 123 C 112.675 123, 112 122.167, 112 121.149 C 112 120.131, 111.500 117.865, 110.890 116.113 C 108.853 110.272, 98.416 107, 81.816 107 L 73 107 73 136.397 M 64 139.378 C 64 158.938, 64.245 162.958, 65.500 164 C 66.826 165.101, 67 162.396, 67 140.622 C 67 119.402, 66.793 116, 65.500 116 C 64.209 116, 64 119.264, 64 139.378 M 160 140.122 C 160 161.451, 160.174 164.101, 161.500 163 C 163.748 161.135, 163.748 116, 161.500 116 C 160.208 116, 160 119.347, 160 140.122 M 97.672 127.043 C 96.132 128.254, 94.796 130.572, 94.390 132.734 C 93.402 138.004, 96.670 143.468, 105.623 151.513 C 114.277 159.288, 113.214 159.449, 124.189 148.711 C 132.079 140.992, 133.996 136.320, 131.613 130.617 C 129.142 124.703, 122.655 123.196, 116.374 127.078 L 113.013 129.155 110.372 127.078 C 106.923 124.365, 101.097 124.349, 97.672 127.043 M 74.405 173.853 C 75.999 175.649, 77.388 175.993, 82.905 175.960 C 89.419 175.920, 89.465 175.901, 86.654 174.378 C 85.089 173.530, 81.264 172.582, 78.154 172.271 L 72.500 171.707 74.405 173.853 M 140.500 173.820 L 135.500 175.500 142.925 175.797 C 149.311 176.053, 150.636 175.808, 152.397 174.047 L 154.444 172 149.972 172.070 C 147.512 172.108, 143.250 172.895, 140.500 173.820" stroke="none" fill="#ffffff" fill-rule="evenodd"/><path d="M 98.046 127.800 C 95.771 130.075, 95 131.764, 95 134.473 C 95 139.821, 97.059 142.965, 105.679 150.781 L 113.438 157.817 121.108 150.903 C 132.567 140.572, 134.889 133.735, 128.954 127.800 C 126.324 125.171, 125.405 124.835, 122.237 125.349 C 120.218 125.677, 117.354 126.841, 115.872 127.936 C 113.180 129.927, 113.177 129.927, 110.605 127.904 C 109.189 126.790, 106.470 125.626, 104.562 125.316 C 101.631 124.841, 100.620 125.226, 98.046 127.800" stroke="none" fill="#ce1126" fill-rule="evenodd"/><path d="M 32.469 60.500 C 32.469 93.500, 32.596 106.855, 32.750 90.178 C 32.904 73.501, 32.903 46.501, 32.749 30.178 C 32.595 13.855, 32.469 27.500, 32.469 60.500 M 194.463 49.500 C 194.463 76.450, 194.592 87.331, 194.749 73.681 C 194.907 60.030, 194.906 37.980, 194.749 24.681 C 194.592 11.381, 194.463 22.550, 194.463 49.500 M 41.450 44 C 41.450 62.975, 41.584 70.737, 41.748 61.250 C 41.913 51.762, 41.913 36.237, 41.748 26.750 C 41.584 17.262, 41.450 25.025, 41.450 44 M 185.447 42 C 185.447 59.875, 185.582 67.188, 185.748 58.250 C 185.914 49.312, 185.914 34.687, 185.748 25.750 C 185.582 16.812, 185.447 24.125, 185.447 42 M 112.092 20.750 C 111.550 22.813, 109.709 30.125, 108 37 C 102.495 59.150, 103.142 57.438, 101.006 55.506 C 99.981 54.578, 98.419 52.296, 97.537 50.436 C 96.019 47.238, 96.047 46.827, 98.055 42.891 C 99.775 39.521, 99.924 38.567, 98.840 37.880 C 94.033 34.833, 84.374 39.530, 80.965 46.572 C 79.148 50.325, 78.838 52.273, 79.279 57.143 C 79.817 63.076, 79.807 63.104, 77.660 61.703 C 69.644 56.471, 51.779 45.887, 51.477 46.190 C 51.274 46.392, 55.838 54.129, 61.618 63.382 C 67.398 72.635, 71.836 80.497, 71.480 80.853 C 71.125 81.209, 68.132 81.500, 64.830 81.500 C 59.492 81.500, 58.559 81.189, 56.413 78.694 C 55.086 77.151, 54 75.014, 54 73.944 C 54 71.219, 52.324 71.522, 48.997 74.850 C 40.761 83.085, 46.584 98.401, 59.292 101.933 C 64.194 103.296, 65.237 103.329, 74.277 102.410 C 83.247 101.499, 83.880 100.006, 75.309 99.976 C 63.199 99.934, 57.841 97.756, 53.250 91.010 C 52.013 89.192, 51 86.614, 51 85.281 C 51 83.073, 51.141 82.998, 52.578 84.435 C 55.950 87.807, 58.593 88.496, 68.166 88.498 C 77.069 88.500, 78.039 88.695, 80.468 90.974 C 82.687 93.055, 83.253 93.214, 84.037 91.974 C 85.744 89.276, 85.058 87.857, 75.989 75.323 C 71.034 68.473, 67.546 63.211, 68.239 63.630 C 68.933 64.048, 73.325 67.146, 78 70.514 C 91.516 80.251, 91.589 80.290, 93.913 79.047 C 95.887 77.990, 95.801 77.735, 91.494 71.885 C 89.038 68.548, 86.533 63.979, 85.927 61.730 C 84.441 56.210, 85.576 49.577, 88.580 46.231 L 91.033 43.500 90.861 46 C 90.499 51.255, 91.128 52.977, 95.250 58.029 C 101.550 65.750, 102.989 68.206, 102.995 71.250 C 103 73.998, 104.360 74.693, 106.754 73.173 C 107.462 72.724, 109.111 65.663, 110.534 56.992 C 112.726 43.634, 114 38.026, 114 41.737 C 114 46.296, 119.181 72.498, 120.212 73.152 C 122.891 74.852, 123.736 73.849, 124.310 68.289 C 125.455 57.187, 133.034 47, 140.148 47 C 143.720 47, 143.706 47.432, 140 51.653 C 137.335 54.688, 137 55.784, 137 61.470 C 137 68.522, 135.871 72.427, 132.923 75.575 C 130.993 77.637, 130.996 77.660, 133.369 78.930 C 135.596 80.122, 136.552 79.622, 147.379 71.610 C 153.771 66.881, 159 63.286, 159 63.621 C 159 63.956, 154.980 69.758, 150.067 76.516 C 142.259 87.255, 141.296 89.023, 142.420 90.559 C 143.613 92.191, 144.049 92.054, 148.497 88.658 C 157.157 82.046, 167.111 81.397, 173.313 87.041 L 176.500 89.941 171.340 89.971 C 166.817 89.996, 165.529 90.515, 160.911 94.164 C 158.014 96.455, 153.627 99.094, 151.163 100.029 L 146.683 101.730 152.438 102.449 C 157.392 103.068, 158.492 102.893, 160.346 101.189 C 163.607 98.193, 169.272 95.008, 171.349 95.004 C 172.366 95.002, 174.744 95.734, 176.635 96.631 C 178.525 97.528, 180.333 98, 180.653 97.680 C 180.973 97.360, 181.447 95.164, 181.707 92.799 C 182.105 89.186, 181.706 87.849, 179.206 84.419 C 175.247 78.986, 170.068 76.585, 162.697 76.766 L 156.894 76.908 159.175 73.204 C 160.430 71.167, 164.712 64.346, 168.691 58.046 C 172.670 51.746, 175.773 46.440, 175.588 46.255 C 175.402 46.069, 167.708 50.457, 158.490 56.006 L 141.729 66.095 142.392 61.797 C 143.236 56.328, 145.849 52.762, 149.852 51.614 C 157.383 49.454, 150.347 41, 141.018 41 C 135.176 41, 130.030 43.426, 125.988 48.085 L 122.475 52.134 118.130 34.567 C 115.740 24.905, 113.625 17, 113.431 17 C 113.236 17, 112.634 18.688, 112.092 20.750 M 105.969 80.480 C 99.788 82.462, 93.212 88.350, 90.374 94.444 C 89.079 97.225, 88.015 99.963, 88.010 100.529 C 88.004 101.094, 91.158 102.055, 95.017 102.662 C 98.877 103.270, 104.614 105.057, 107.767 106.634 L 113.500 109.500 119.103 106.679 C 122.184 105.127, 127.921 103.360, 131.853 102.751 C 136.676 102.004, 139 101.202, 139 100.283 C 139 98.075, 135.232 91.334, 131.839 87.469 C 125.664 80.436, 115.052 77.569, 105.969 80.480 M 41.415 99 C 41.415 109.175, 41.564 113.337, 41.745 108.250 C 41.927 103.162, 41.927 94.837, 41.745 89.750 C 41.564 84.662, 41.415 88.825, 41.415 99 M 189.389 105.500 C 189.390 112.650, 189.550 115.444, 189.742 111.708 C 189.935 107.973, 189.934 102.123, 189.739 98.708 C 189.545 95.294, 189.387 98.350, 189.389 105.500 M 81.750 106.706 C 82.987 106.944, 85.013 106.944, 86.250 106.706 C 87.487 106.467, 86.475 106.272, 84 106.272 C 81.525 106.272, 80.513 106.467, 81.750 106.706 M 138.250 106.728 C 140.313 106.944, 143.688 106.944, 145.750 106.728 C 147.813 106.513, 146.125 106.336, 142 106.336 C 137.875 106.336, 136.188 106.513, 138.250 106.728 M 44.454 116.097 C 45.371 127.820, 47.021 133.266, 53.341 145.427 L 58.500 155.355 59.121 140.427 C 59.462 132.217, 59.800 122.463, 59.871 118.750 L 60 112 63.500 112 C 66.567 112, 67 111.690, 67 109.500 L 67 107 55.371 107 L 43.742 107 44.454 116.097 M 154.444 137 C 154.444 153.775, 154.581 160.637, 154.748 152.250 C 154.915 143.863, 154.915 130.137, 154.748 121.750 C 154.581 113.362, 154.444 120.225, 154.444 137 M 159 109.500 C 159 111.748, 159.401 112, 162.981 112 L 166.962 112 167.231 134.092 L 167.500 156.184 171.749 148.714 C 178.760 136.388, 181.134 128.918, 181.748 117.250 L 182.287 107 170.644 107 L 159 107 159 109.500 M 66.999 141.299 L 67.497 167.500 67.766 142.068 C 67.914 128.080, 67.690 116.289, 67.268 115.866 C 66.845 115.443, 66.724 126.888, 66.999 141.299 M 161.231 115.627 C 162.795 116.090, 162.992 118.316, 163.260 138.570 L 163.558 161.001 163.529 138.264 C 163.501 116.272, 163.434 115.520, 161.500 115.321 C 159.981 115.164, 159.916 115.238, 161.231 115.627 M 193.195 122.500 C 193.215 124.150, 193.439 124.704, 193.693 123.731 C 193.947 122.758, 193.930 121.408, 193.656 120.731 C 193.382 120.054, 193.175 120.850, 193.195 122.500 M 96.872 127.750 C 95.629 129.336, 95.664 129.371, 97.250 128.128 C 98.916 126.821, 99.445 126, 98.622 126 C 98.415 126, 97.627 126.787, 96.872 127.750 M 159.413 148.500 C 159.414 158.400, 159.564 162.315, 159.746 157.199 C 159.928 152.084, 159.927 143.984, 159.744 139.199 C 159.561 134.415, 159.412 138.600, 159.413 148.500 M 94.079 134.583 C 94.127 135.748, 94.364 135.985, 94.683 135.188 C 94.972 134.466, 94.936 133.603, 94.604 133.271 C 94.272 132.939, 94.036 133.529, 94.079 134.583 M 118.872 152.750 C 117.629 154.336, 117.664 154.371, 119.250 153.128 C 120.916 151.821, 121.445 151, 120.622 151 C 120.415 151, 119.627 151.787, 118.872 152.750 M 107 152.378 C 107 152.585, 107.787 153.373, 108.750 154.128 C 110.336 155.371, 110.371 155.336, 109.128 153.750 C 107.821 152.084, 107 151.555, 107 152.378 M 114.328 169.500 C 114.333 173.350, 114.513 174.802, 114.730 172.728 C 114.946 170.653, 114.943 167.503, 114.722 165.728 C 114.501 163.952, 114.324 165.650, 114.328 169.500 M 73.250 171.689 C 74.213 171.941, 75.787 171.941, 76.750 171.689 C 77.713 171.438, 76.925 171.232, 75 171.232 C 73.075 171.232, 72.287 171.438, 73.250 171.689 M 151.353 171.726 L 154.205 172.153 151.853 174.826 L 149.500 177.500 152.250 175.076 C 155.841 171.910, 155.720 170.967, 151.750 171.150 C 148.580 171.296, 148.570 171.310, 151.353 171.726 M 69 174.378 C 69 174.585, 69.787 175.373, 70.750 176.128 C 72.336 177.371, 72.371 177.336, 71.128 175.750 C 69.821 174.084, 69 173.555, 69 174.378 M 80 180.920 C 80 182.816, 106.609 206.115, 112.176 209.094 C 113.481 209.792, 115.582 208.638, 121.344 204.060 C 128.042 198.738, 146.114 182.354, 146.753 181.025 C 146.891 180.736, 142.275 180.725, 136.493 181 L 125.981 181.500 119.590 187.223 C 113.840 192.372, 113.065 192.782, 111.850 191.309 C 111.107 190.408, 107.889 187.495, 104.698 184.836 L 98.896 180 89.448 180 C 84.252 180, 80 180.414, 80 180.920 M 159.405 185.250 L 157.500 187.500 159.750 185.595 C 161.864 183.805, 162.455 183, 161.655 183 C 161.465 183, 160.453 184.012, 159.405 185.250 M 76.500 189 C 79.209 191.750, 81.650 194, 81.925 194 C 82.200 194, 80.209 191.750, 77.500 189 C 74.791 186.250, 72.350 184, 72.075 184 C 71.800 184, 73.791 186.250, 76.500 189 M 152.405 186.250 L 150.500 188.500 152.750 186.595 C 153.988 185.547, 155 184.535, 155 184.345 C 155 183.545, 154.195 184.136, 152.405 186.250 M 71.500 190 C 72.495 191.100, 73.535 192, 73.810 192 C 74.085 192, 73.495 191.100, 72.500 190 C 71.505 188.900, 70.465 188, 70.190 188 C 69.915 188, 70.505 188.900, 71.500 190 M 143.405 195.250 L 141.500 197.500 143.750 195.595 C 145.864 193.805, 146.455 193, 145.655 193 C 145.465 193, 144.453 194.012, 143.405 195.250 M 146.405 198.250 L 144.500 200.500 146.750 198.595 C 148.864 196.805, 149.455 196, 148.655 196 C 148.465 196, 147.453 197.012, 146.405 198.250" stroke="none" fill="#ffcf49" fill-rule="evenodd"/><path d="M 33.206 65.750 C 33.448 117.888, 33.758 130.046, 34.905 132.500 C 35.676 134.150, 36.415 136.005, 36.547 136.623 C 36.983 138.672, 42.147 149.960, 45.487 156.166 C 46.030 157.175, 46.818 158, 47.237 158 C 47.657 158, 48 158.675, 48 159.500 C 48 160.325, 48.450 161, 49 161 C 49.550 161, 50 161.675, 50 162.500 C 50 163.325, 50.450 164, 51 164 C 51.550 164, 52 164.575, 52 165.278 C 52 165.981, 52.788 167.285, 53.750 168.177 C 54.712 169.068, 56.511 171.081, 57.747 172.649 C 58.983 174.217, 61.233 177.023, 62.747 178.883 C 66.366 183.332, 90.029 206.935, 93.441 209.500 C 96.566 211.850, 100.010 214.550, 101.708 215.981 C 102.372 216.542, 103.385 217, 103.958 217 C 104.531 217, 105 217.450, 105 218 C 105 218.550, 105.675 219, 106.500 219 C 107.325 219, 108 219.450, 108 220 C 108 220.550, 108.482 221, 109.071 221 C 109.661 221, 110.796 221.653, 111.594 222.451 C 112.862 223.719, 113.641 223.503, 117.772 220.742 C 120.373 219.004, 122.650 217.226, 122.833 216.791 C 123.017 216.356, 123.598 216, 124.126 216 C 125.108 216, 125.352 215.831, 130.500 211.579 C 132.150 210.216, 134.764 208.066, 136.309 206.801 C 140.813 203.111, 165.261 178.742, 168 175.211 C 169.375 173.439, 171.730 170.529, 173.234 168.744 C 174.738 166.960, 175.975 164.938, 175.984 164.250 C 175.993 163.563, 176.450 163, 177 163 C 177.550 163, 178 162.325, 178 161.500 C 178 160.675, 178.441 160, 178.981 160 C 179.520 160, 180.244 158.875, 180.589 157.500 C 180.934 156.125, 181.535 155, 181.925 155 C 182.560 155, 184.935 150.197, 189.355 139.977 C 193.288 130.881, 193.761 122.408, 193.918 58.250 L 194.055 2 113.482 2 L 32.909 2 33.206 65.750 M 37 65.388 C 37 123.622, 37.074 126.035, 39.073 132.645 C 41.219 139.746, 46.566 151.429, 48.750 153.791 C 49.438 154.534, 50 155.786, 50 156.571 C 50 157.357, 50.450 158, 51 158 C 51.550 158, 52 158.675, 52 159.500 C 52 160.325, 52.450 161, 53 161 C 53.550 161, 54 161.482, 54 162.071 C 54 162.661, 54.563 163.731, 55.250 164.449 C 55.938 165.167, 57.175 166.750, 58 167.966 C 58.825 169.182, 60.400 171.236, 61.500 172.531 C 70.121 182.679, 74.288 187.196, 79.448 191.982 C 82.719 195.017, 87.069 199.075, 89.113 201 C 91.158 202.925, 94.048 205.400, 95.534 206.500 C 97.021 207.600, 99.084 209.287, 100.119 210.250 C 101.153 211.213, 102.450 212, 103 212 C 103.550 212, 104 212.348, 104 212.773 C 104 213.198, 105.575 214.393, 107.500 215.430 C 109.425 216.467, 111 217.694, 111 218.157 C 111 219.562, 114.756 219.101, 116.357 217.500 C 117.182 216.675, 118.339 216, 118.929 216 C 119.518 216, 120 215.550, 120 215 C 120 214.450, 120.627 214, 121.393 214 C 122.159 214, 123.045 213.325, 123.362 212.500 C 123.678 211.675, 124.626 211, 125.469 211 C 126.311 211, 127 210.536, 127 209.969 C 127 209.401, 127.787 208.647, 128.750 208.293 C 129.713 207.939, 131.441 206.715, 132.590 205.575 C 133.740 204.434, 136.413 202.150, 138.530 200.500 C 143.491 196.635, 153.519 186.658, 158 181.130 C 159.925 178.756, 162.447 175.775, 163.605 174.506 C 164.762 173.238, 165.986 171.480, 166.323 170.600 C 166.661 169.720, 167.401 169, 167.969 169 C 168.536 169, 169 168.433, 169 167.740 C 169 167.047, 170.012 165.346, 171.250 163.962 C 172.487 162.577, 174.377 159.881, 175.450 157.972 C 176.522 156.062, 177.762 154.050, 178.206 153.500 C 179.570 151.807, 185 140.857, 185 139.800 C 185 139.251, 185.629 137.384, 186.399 135.651 C 189.697 128.221, 189.919 123.442, 189.710 64.500 L 189.500 5.500 113.250 5.244 L 37 4.988 37 65.388 M 42.257 69.250 C 42.431 101.288, 42.921 128.836, 43.346 130.469 C 43.771 132.102, 44.597 134.014, 45.182 134.719 C 45.766 135.424, 46.004 136, 45.710 136 C 45.415 136, 47.172 139.713, 49.613 144.250 C 52.054 148.787, 54.317 153.287, 54.642 154.250 C 54.967 155.212, 55.631 156, 56.117 156 C 56.602 156, 57 156.482, 57 157.071 C 57 157.661, 57.563 158.731, 58.250 159.449 C 58.938 160.167, 60.175 161.750, 61 162.966 C 61.825 164.182, 63.400 166.242, 64.500 167.543 C 65.600 168.845, 68.300 172.068, 70.500 174.705 C 77.782 183.434, 98.063 203, 99.829 203 C 100.355 203, 101.045 203.675, 101.362 204.500 C 101.678 205.325, 102.578 206, 103.362 206 C 104.145 206, 105.045 206.675, 105.362 207.500 C 105.678 208.325, 106.626 209, 107.469 209 C 108.311 209, 109 209.450, 109 210 C 109 210.550, 109.675 211, 110.500 211 C 111.325 211, 112 211.450, 112 212 C 112 213.788, 114.431 213.028, 117.648 210.234 C 119.379 208.730, 121.806 206.825, 123.041 206 C 125.256 204.519, 126.723 203.336, 134.420 196.819 C 139.776 192.285, 152.836 179.204, 156.500 174.705 C 158.150 172.679, 160.525 169.779, 161.778 168.261 C 165.823 163.360, 166 163.099, 166 162.042 C 166 161.469, 166.374 161, 166.831 161 C 167.288 161, 168.300 159.763, 169.079 158.250 C 169.859 156.738, 170.723 155.275, 170.998 155 C 172.239 153.763, 180.877 137.761, 181.119 136.250 C 181.185 135.837, 181.677 134.375, 182.212 133 C 184.397 127.381, 184.824 116.782, 184.948 65.106 L 185.077 11 113.510 11 L 41.942 11 42.257 69.250 M 112.090 19.750 C 111.547 21.813, 109.248 30.919, 106.980 39.988 C 104.713 49.056, 102.732 56.602, 102.577 56.756 C 102.423 56.910, 101.105 55.316, 99.649 53.214 C 96.502 48.674, 96.289 45.174, 98.953 41.787 C 101.498 38.552, 100.037 37, 94.448 37 C 85.816 37, 79.832 44.052, 79 55.204 L 78.500 61.907 64.641 53.396 C 57.018 48.715, 50.643 45.024, 50.474 45.193 C 50.304 45.363, 55.095 53.376, 61.119 63.001 L 72.073 80.500 65.447 80.798 C 58.021 81.131, 56.648 80.434, 54.828 75.402 C 53.389 71.423, 52.116 71.157, 49.299 74.250 C 44.405 79.624, 43.685 85.652, 47.096 92.698 C 49.352 97.360, 54.482 101.014, 61.360 102.862 C 65.388 103.945, 82 102.459, 82 101.016 C 82 100.622, 77.910 100.009, 72.911 99.654 C 67.866 99.296, 62.279 98.277, 60.354 97.364 C 56.371 95.474, 52.478 90.791, 51.444 86.647 L 50.731 83.794 54.872 86.534 C 58.759 89.106, 59.466 89.234, 66.366 88.608 C 74.212 87.897, 78.037 88.763, 81.540 92.043 C 83.558 93.933, 83.590 93.924, 84.639 91.146 C 85.625 88.533, 85.085 87.493, 76.832 76.100 C 71.955 69.368, 68.535 64.210, 69.233 64.636 C 69.930 65.063, 75.410 68.923, 81.412 73.215 C 91.693 80.567, 92.428 80.922, 94.144 79.369 C 95.893 77.787, 95.833 77.538, 92.612 73.111 C 87.324 65.840, 85.714 61.963, 85.714 56.500 C 85.714 51.879, 87.787 45.868, 89.812 44.616 C 90.266 44.335, 90.452 45.372, 90.225 46.921 C 89.701 50.494, 92.113 55.185, 97.652 61.366 C 100.598 64.653, 102.215 67.491, 102.634 70.116 C 103.147 73.318, 103.658 74, 105.548 74 C 108.151 74, 107.937 74.704, 111.013 56 C 112.144 49.125, 113.203 43.052, 113.366 42.504 C 113.530 41.957, 114.665 48.032, 115.889 56.004 C 118.664 74.087, 118.638 74, 121.420 74 C 123.452 74, 123.822 73.290, 124.769 67.577 C 126.691 55.974, 132.182 48.468, 139.585 47.322 L 143.500 46.716 141.375 49.108 C 137.272 53.727, 136.203 57.769, 136.040 69.295 C 136.016 70.929, 134.925 73.166, 133.412 74.679 C 130.831 77.260, 130.829 77.274, 132.806 79.250 C 134.782 81.227, 134.821 81.209, 145.782 73.116 C 151.829 68.652, 157.041 65, 157.365 65 C 157.689 65, 154.104 70.386, 149.399 76.970 C 141.562 87.936, 140.961 89.107, 142.240 90.932 C 143.613 92.892, 143.692 92.878, 147.068 90.108 C 152.721 85.468, 156.482 84, 162.700 84.004 C 166.717 84.006, 169.499 84.617, 171.750 85.989 C 175.333 88.174, 176.097 90.100, 173.066 89.307 C 170.243 88.569, 164.299 90.802, 160.664 93.967 C 157.012 97.148, 152.759 99.417, 148.552 100.428 C 144.301 101.451, 147.177 102.965, 153.406 102.985 C 157.139 102.996, 159.110 102.391, 161.656 100.449 C 163.496 99.046, 166.621 97.221, 168.600 96.394 C 171.917 95.008, 172.507 95.042, 176.125 96.832 C 179.906 98.703, 180.086 98.707, 181.025 96.953 C 181.561 95.951, 182 93.730, 182 92.016 C 182 82.952, 171.829 75.102, 161.808 76.431 L 157.035 77.064 166.943 61.291 C 172.393 52.616, 176.708 45.374, 176.532 45.198 C 176.356 45.023, 168.708 49.450, 159.537 55.037 C 150.366 60.624, 142.693 65.027, 142.487 64.821 C 141.859 64.192, 144.033 55.665, 145.171 54.294 C 145.757 53.587, 147.984 52.486, 150.119 51.846 C 154.741 50.461, 154.947 49.092, 151.168 44.862 C 148.784 42.193, 147.458 41.620, 142.780 41.232 C 135.413 40.621, 130.903 42.258, 126.488 47.145 C 124.484 49.363, 122.721 51.025, 122.569 50.839 C 122.418 50.653, 120.374 42.737, 118.029 33.250 C 115.683 23.762, 113.609 16, 113.420 16 C 113.231 16, 112.633 17.688, 112.090 19.750 M 102.097 82.109 C 97.272 84.520, 95.109 86.372, 92.462 90.359 C 90.585 93.187, 88.763 96.933, 88.413 98.684 C 87.799 101.755, 87.913 101.889, 91.638 102.468 C 98.748 103.574, 106.907 105.973, 110.041 107.879 L 113.146 109.767 118.823 106.976 C 121.945 105.441, 126.525 103.894, 129 103.539 C 138.397 102.190, 139 101.953, 139 99.616 C 139 96.472, 134.054 89.058, 129.164 84.872 C 121.296 78.138, 111.953 77.184, 102.097 82.109 M 74.250 106.647 L 72 107.139 72 136.939 L 72 166.740 76.250 167.320 C 80.862 167.949, 82.195 168.230, 86 169.373 C 89.547 170.439, 99.435 175.355, 99.833 176.250 C 100.017 176.662, 100.598 177, 101.126 177 C 102.262 177, 104.232 178.499, 108.023 182.250 C 109.552 183.762, 111.072 185, 111.401 185 C 111.731 185, 112 180.275, 112 174.500 C 112 168.167, 112.397 164, 113 164 C 113.603 164, 114 168.167, 114 174.500 C 114 180.275, 114.393 185, 114.874 185 C 115.355 185, 117.371 183.537, 119.355 181.750 C 124.997 176.665, 127.302 175, 128.703 175 C 129.417 175, 130 174.605, 130 174.123 C 130 172.876, 138.756 169.292, 143.500 168.597 C 145.700 168.275, 149.188 167.744, 151.250 167.418 L 155 166.824 155 136.973 L 155 107.123 150.366 106.428 C 145.997 105.772, 133.074 106.327, 128.348 107.372 C 121.562 108.872, 115.287 113.952, 114.404 118.660 C 113.691 122.463, 111.920 123.238, 112.220 119.616 C 112.328 118.305, 111.332 115.649, 110.006 113.714 C 107.810 110.509, 105.031 109.020, 98 107.283 C 95.386 106.636, 76.596 106.134, 74.250 106.647 M 44.017 113.250 C 44.046 123.588, 46.519 132.599, 52.663 144.750 C 55.792 150.938, 58.723 156, 59.176 156 C 59.629 156, 60 146.100, 60 134 L 60 112 64 112 C 67.600 112, 68 111.750, 68 109.500 L 68 107 56 107 L 44 107 44.017 113.250 M 159 109.500 C 159 111.690, 159.433 112, 162.500 112 L 166 112 166 134.622 C 166 153.278, 166.232 157.052, 167.324 156.146 C 169.703 154.171, 178.884 135.544, 180.460 129.492 C 181.307 126.240, 182 119.849, 182 115.290 L 182 107 170.500 107 L 159 107 159 109.500 M 63 138.418 C 63 151.298, 63.278 162.561, 63.618 163.446 C 63.957 164.331, 65.082 165.509, 66.118 166.063 C 67.938 167.037, 68 166.218, 68 141.035 L 68 115 65.500 115 L 63 115 63 138.418 M 159 140.500 C 159 154.525, 159.257 166, 159.571 166 C 159.886 166, 160.898 165.245, 161.821 164.323 C 163.281 162.866, 163.539 159.535, 163.801 138.823 L 164.101 115 161.551 115 L 159 115 159 140.500 M 71 171.460 C 71 171.712, 72.233 173.062, 73.740 174.460 C 76.229 176.767, 77.259 177, 84.990 176.996 L 93.500 176.993 90.500 175.171 C 88.850 174.170, 85.388 172.821, 82.807 172.175 C 78.154 171.010, 71 170.576, 71 171.460 M 143.718 172.092 C 141.637 172.581, 138.487 173.774, 136.718 174.741 L 133.500 176.500 142.500 176.795 C 150.701 177.063, 151.655 176.898, 153.250 174.934 C 154.213 173.748, 155 172.378, 155 171.889 C 155 170.788, 148.782 170.899, 143.718 172.092 M 88.223 189.491 C 97.227 198.216, 111.703 210, 113.415 210 C 115.616 210, 147 182.827, 147 180.921 C 147 180.415, 142.551 180, 137.114 180 L 127.228 180 120.372 186.369 L 113.515 192.738 106.636 186.369 L 99.757 180 89.128 180.036 L 78.500 180.072 88.223 189.491" stroke="none" fill="#502d0e" fill-rule="evenodd"/><path d="M 73.325 1.750 C 95.778 1.900, 132.228 1.900, 154.325 1.750 C 176.421 1.599, 158.050 1.477, 113.500 1.477 C 68.950 1.477, 50.871 1.600, 73.325 1.750 M 74.750 5.750 C 95.788 5.900, 130.213 5.900, 151.250 5.750 C 172.288 5.599, 155.075 5.476, 113 5.476 C 70.925 5.476, 53.713 5.599, 74.750 5.750 M 77.824 10.750 C 97.802 10.901, 130.202 10.901, 149.824 10.750 C 169.446 10.598, 153.100 10.474, 113.500 10.474 C 73.900 10.474, 57.846 10.598, 77.824 10.750 M 140.405 50.250 L 138.500 52.500 140.750 50.595 C 141.988 49.547, 143 48.535, 143 48.345 C 143 47.545, 142.195 48.136, 140.405 50.250 M 153.079 49.583 C 153.127 50.748, 153.364 50.985, 153.683 50.188 C 153.972 49.466, 153.936 48.603, 153.604 48.271 C 153.272 47.939, 153.036 48.529, 153.079 49.583 M 131.405 51.250 L 129.500 53.500 131.750 51.595 C 132.988 50.547, 134 49.535, 134 49.345 C 134 48.545, 133.195 49.136, 131.405 51.250 M 79.079 61.583 C 79.127 62.748, 79.364 62.985, 79.683 62.188 C 79.972 61.466, 79.936 60.603, 79.604 60.271 C 79.272 59.939, 79.036 60.529, 79.079 61.583 M 136.195 62.500 C 136.215 64.150, 136.439 64.704, 136.693 63.731 C 136.947 62.758, 136.930 61.408, 136.656 60.731 C 136.382 60.054, 136.175 60.850, 136.195 62.500 M 157.500 64 C 157.160 64.550, 157.359 65, 157.941 65 C 158.523 65, 159 64.550, 159 64 C 159 63.450, 158.802 63, 158.559 63 C 158.316 63, 157.840 63.450, 157.500 64 M 124.079 67.583 C 124.127 68.748, 124.364 68.985, 124.683 68.188 C 124.972 67.466, 124.936 66.603, 124.604 66.271 C 124.272 65.939, 124.036 66.529, 124.079 67.583 M 136.079 67.583 C 136.127 68.748, 136.364 68.985, 136.683 68.188 C 136.972 67.466, 136.936 66.603, 136.604 66.271 C 136.272 65.939, 136.036 66.529, 136.079 67.583 M 133.226 79.579 C 134.176 80.570, 135.168 81.166, 135.431 80.903 C 135.694 80.640, 134.917 79.829, 133.705 79.100 C 131.598 77.835, 131.577 77.857, 133.226 79.579 M 62.750 81.706 C 63.987 81.944, 66.013 81.944, 67.250 81.706 C 68.487 81.467, 67.475 81.272, 65 81.272 C 62.525 81.272, 61.513 81.467, 62.750 81.706 M 160.762 83.707 C 162.006 83.946, 163.806 83.937, 164.762 83.687 C 165.718 83.437, 164.700 83.241, 162.500 83.252 C 160.300 83.263, 159.518 83.468, 160.762 83.707 M 94.872 86.750 C 93.629 88.336, 93.664 88.371, 95.250 87.128 C 96.916 85.821, 97.445 85, 96.622 85 C 96.415 85, 95.627 85.787, 94.872 86.750 M 170.269 89.693 C 171.242 89.947, 172.592 89.930, 173.269 89.656 C 173.946 89.382, 173.150 89.175, 171.500 89.195 C 169.850 89.215, 169.296 89.439, 170.269 89.693 M 67.813 99.683 C 68.534 99.972, 69.397 99.936, 69.729 99.604 C 70.061 99.272, 69.471 99.036, 68.417 99.079 C 67.252 99.127, 67.015 99.364, 67.813 99.683 M 72.269 102.693 C 73.242 102.947, 74.592 102.930, 75.269 102.656 C 75.946 102.382, 75.150 102.175, 73.500 102.195 C 71.850 102.215, 71.296 102.439, 72.269 102.693 M 91.750 102.662 C 92.438 102.940, 93.563 102.940, 94.250 102.662 C 94.938 102.385, 94.375 102.158, 93 102.158 C 91.625 102.158, 91.063 102.385, 91.750 102.662 M 133.813 102.683 C 134.534 102.972, 135.397 102.936, 135.729 102.604 C 136.061 102.272, 135.471 102.036, 134.417 102.079 C 133.252 102.127, 133.015 102.364, 133.813 102.683 M 149.269 102.693 C 150.242 102.947, 151.592 102.930, 152.269 102.656 C 152.946 102.382, 152.150 102.175, 150.500 102.195 C 148.850 102.215, 148.296 102.439, 149.269 102.693 M 76.750 106.662 C 77.438 106.940, 78.563 106.940, 79.250 106.662 C 79.938 106.385, 79.375 106.158, 78 106.158 C 76.625 106.158, 76.063 106.385, 76.750 106.662 M 88.813 106.683 C 89.534 106.972, 90.397 106.936, 90.729 106.604 C 91.061 106.272, 90.471 106.036, 89.417 106.079 C 88.252 106.127, 88.015 106.364, 88.813 106.683 M 67.195 109.500 C 67.215 111.150, 67.439 111.704, 67.693 110.731 C 67.947 109.758, 67.930 108.408, 67.656 107.731 C 67.382 107.054, 67.175 107.850, 67.195 109.500 M 184.195 110.500 C 184.215 112.150, 184.439 112.704, 184.693 111.731 C 184.947 110.758, 184.930 109.408, 184.656 108.731 C 184.382 108.054, 184.175 108.850, 184.195 110.500 M 193.079 109.583 C 193.127 110.748, 193.364 110.985, 193.683 110.188 C 193.972 109.466, 193.936 108.603, 193.604 108.271 C 193.272 107.939, 193.036 108.529, 193.079 109.583 M 166.429 134.500 C 166.429 147.150, 166.573 152.187, 166.747 145.694 C 166.922 139.200, 166.921 128.850, 166.746 122.694 C 166.571 116.537, 166.428 121.850, 166.429 134.500 M 63.813 115.683 C 64.534 115.972, 65.397 115.936, 65.729 115.604 C 66.061 115.272, 65.471 115.036, 64.417 115.079 C 63.252 115.127, 63.015 115.364, 63.813 115.683 M 44.158 119 C 44.158 120.375, 44.385 120.938, 44.662 120.250 C 44.940 119.563, 44.940 118.438, 44.662 117.750 C 44.385 117.063, 44.158 117.625, 44.158 119 M 193.079 118.583 C 193.127 119.748, 193.364 119.985, 193.683 119.188 C 193.972 118.466, 193.936 117.603, 193.604 117.271 C 193.272 116.939, 193.036 117.529, 193.079 118.583 M 189.079 119.583 C 189.127 120.748, 189.364 120.985, 189.683 120.188 C 189.972 119.466, 189.936 118.603, 189.604 118.271 C 189.272 117.939, 189.036 118.529, 189.079 119.583 M 184.079 122.583 C 184.127 123.748, 184.364 123.985, 184.683 123.188 C 184.972 122.466, 184.936 121.603, 184.604 121.271 C 184.272 120.939, 184.036 121.529, 184.079 122.583 M 58.804 142.502 C 58.637 149.928, 58.837 156.003, 59.250 156.002 C 59.663 156.001, 60 149.925, 60 142.500 C 60 135.075, 59.799 129, 59.554 129 C 59.309 129, 58.971 135.076, 58.804 142.502 M 47 140.373 C 47 141.453, 50.972 149, 51.541 149 C 51.816 149, 51.076 147.088, 49.897 144.750 C 47.579 140.153, 47 139.278, 47 140.373 M 183.624 141.539 C 182.659 144.053, 182.943 144.702, 184.122 142.675 C 184.706 141.671, 184.973 140.639, 184.715 140.382 C 184.458 140.124, 183.966 140.645, 183.624 141.539 M 178.459 152.067 C 178.096 152.653, 178.014 153.348, 178.276 153.610 C 178.538 153.872, 179.019 153.392, 179.345 152.543 C 180.021 150.781, 179.445 150.471, 178.459 152.067 M 148.813 167.683 C 149.534 167.972, 150.397 167.936, 150.729 167.604 C 151.061 167.272, 150.471 167.036, 149.417 167.079 C 148.252 167.127, 148.015 167.364, 148.813 167.683 M 94 172.430 C 94 172.705, 94.900 173.411, 96 174 C 97.100 174.589, 98 174.845, 98 174.570 C 98 174.295, 97.100 173.589, 96 173 C 94.900 172.411, 94 172.155, 94 172.430 M 151.872 175.750 C 150.629 177.336, 150.664 177.371, 152.250 176.128 C 153.916 174.821, 154.445 174, 153.622 174 C 153.415 174, 152.627 174.787, 151.872 175.750 M 114.175 180.250 C 114.008 184.778, 115.057 186.335, 116.595 183.845 C 117.024 183.152, 116.871 182.962, 116.213 183.368 C 115.502 183.808, 114.982 182.545, 114.733 179.773 L 114.349 175.500 114.175 180.250 M 72 177.378 C 72 177.585, 72.787 178.373, 73.750 179.128 C 75.336 180.371, 75.371 180.336, 74.128 178.750 C 72.821 177.084, 72 176.555, 72 177.378 M 118.872 181.750 C 117.629 183.336, 117.664 183.371, 119.250 182.128 C 120.213 181.373, 121 180.585, 121 180.378 C 121 179.555, 120.179 180.084, 118.872 181.750 M 131.784 180.738 C 134.689 180.941, 139.189 180.939, 141.784 180.734 C 144.378 180.528, 142 180.363, 136.500 180.365 C 131 180.368, 128.878 180.536, 131.784 180.738 M 69 181.378 C 69 181.585, 69.787 182.373, 70.750 183.128 C 72.336 184.371, 72.371 184.336, 71.128 182.750 C 69.821 181.084, 69 180.555, 69 181.378 M 159.872 183.750 C 158.629 185.336, 158.664 185.371, 160.250 184.128 C 161.916 182.821, 162.445 182, 161.622 182 C 161.415 182, 160.627 182.787, 159.872 183.750 M 140.946 186.750 L 137.500 190.500 141.250 187.054 C 144.740 183.846, 145.460 183, 144.696 183 C 144.529 183, 142.842 184.688, 140.946 186.750 M 70.500 188 C 71.495 189.100, 72.535 190, 72.810 190 C 73.085 190, 72.495 189.100, 71.500 188 C 70.505 186.900, 69.465 186, 69.190 186 C 68.915 186, 69.505 186.900, 70.500 188 M 147.966 191.750 L 142.500 197.500 148.250 192.034 C 153.592 186.956, 154.458 186, 153.716 186 C 153.560 186, 150.972 188.588, 147.966 191.750 M 75.500 189 C 76.495 190.100, 77.535 191, 77.810 191 C 78.085 191, 77.495 190.100, 76.500 189 C 75.505 187.900, 74.465 187, 74.190 187 C 73.915 187, 74.505 187.900, 75.500 189 M 153 191.500 C 150.571 193.975, 148.809 196, 149.084 196 C 149.359 196, 151.571 193.975, 154 191.500 C 156.429 189.025, 158.191 187, 157.916 187 C 157.641 187, 155.429 189.025, 153 191.500 M 78.500 197 C 81.209 199.750, 83.650 202, 83.925 202 C 84.200 202, 82.209 199.750, 79.500 197 C 76.791 194.250, 74.350 192, 74.075 192 C 73.800 192, 75.791 194.250, 78.500 197 M 92.500 194 C 93.495 195.100, 94.535 196, 94.810 196 C 95.085 196, 94.495 195.100, 93.500 194 C 92.505 192.900, 91.465 192, 91.190 192 C 90.915 192, 91.505 192.900, 92.500 194 M 83.500 196 C 84.495 197.100, 85.535 198, 85.810 198 C 86.085 198, 85.495 197.100, 84.500 196 C 83.505 194.900, 82.465 194, 82.190 194 C 81.915 194, 82.505 194.900, 83.500 196 M 128.872 197.750 C 127.629 199.336, 127.664 199.371, 129.250 198.128 C 130.916 196.821, 131.445 196, 130.622 196 C 130.415 196, 129.627 196.787, 128.872 197.750 M 144.405 199.250 L 142.500 201.500 144.750 199.595 C 145.988 198.547, 147 197.535, 147 197.345 C 147 196.545, 146.195 197.136, 144.405 199.250 M 89 201.378 C 89 201.585, 89.787 202.373, 90.750 203.128 C 92.336 204.371, 92.371 204.336, 91.128 202.750 C 89.821 201.084, 89 200.555, 89 201.378 M 85 202.378 C 85 202.585, 85.787 203.373, 86.750 204.128 C 88.336 205.371, 88.371 205.336, 87.128 203.750 C 85.821 202.084, 85 201.555, 85 202.378" stroke="none" fill="#592a0f" fill-rule="evenodd"/><path d="M 189.459 49.500 C 189.460 73.700, 189.590 83.457, 189.749 71.182 C 189.908 58.907, 189.908 39.107, 189.749 27.182 C 189.589 15.257, 189.459 25.300, 189.459 49.500 M 37.437 41 C 37.437 55.575, 37.577 61.537, 37.747 54.250 C 37.918 46.962, 37.918 35.037, 37.747 27.750 C 37.577 20.462, 37.437 26.425, 37.437 41 M 185.419 93 C 185.419 103.725, 185.566 108.112, 185.746 102.750 C 185.925 97.388, 185.925 88.612, 185.746 83.250 C 185.566 77.888, 185.419 82.275, 185.419 93 M 41.079 79.583 C 41.127 80.748, 41.364 80.985, 41.683 80.188 C 41.972 79.466, 41.936 78.603, 41.604 78.271 C 41.272 77.939, 41.036 78.529, 41.079 79.583 M 194.320 104 C 194.320 107.575, 194.502 109.037, 194.723 107.250 C 194.945 105.463, 194.945 102.537, 194.723 100.750 C 194.502 98.963, 194.320 100.425, 194.320 104 M 72.477 136.500 L 72.500 166.500 74.765 166.633 C 76.620 166.742, 76.668 166.684, 75.030 166.315 C 73.092 165.879, 73.020 164.931, 72.742 136.182 L 72.454 106.500 72.477 136.500 M 37.328 117.500 C 37.333 121.350, 37.513 122.802, 37.730 120.728 C 37.946 118.653, 37.943 115.503, 37.722 113.728 C 37.501 111.952, 37.324 113.650, 37.328 117.500 M 116.872 113.750 C 115.629 115.336, 115.664 115.371, 117.250 114.128 C 118.916 112.821, 119.445 112, 118.622 112 C 118.415 112, 117.627 112.787, 116.872 113.750 M 63.430 139 C 63.430 151.925, 63.573 157.213, 63.747 150.750 C 63.921 144.287, 63.921 133.712, 63.747 127.250 C 63.573 120.787, 63.430 126.075, 63.430 139 M 159.343 123.500 C 159.346 127.900, 159.522 129.576, 159.733 127.224 C 159.945 124.872, 159.942 121.272, 159.727 119.224 C 159.512 117.176, 159.339 119.100, 159.343 123.500 M 41.286 121.500 C 41.294 124.250, 41.488 125.256, 41.718 123.736 C 41.947 122.216, 41.941 119.966, 41.704 118.736 C 41.467 117.506, 41.279 118.750, 41.286 121.500 M 32.195 122.500 C 32.215 124.150, 32.439 124.704, 32.693 123.731 C 32.947 122.758, 32.930 121.408, 32.656 120.731 C 32.382 120.054, 32.175 120.850, 32.195 122.500 M 112.813 122.683 C 113.534 122.972, 114.397 122.936, 114.729 122.604 C 115.061 122.272, 114.471 122.036, 113.417 122.079 C 112.252 122.127, 112.015 122.364, 112.813 122.683 M 188.079 125.583 C 188.127 126.748, 188.364 126.985, 188.683 126.188 C 188.972 125.466, 188.936 124.603, 188.604 124.271 C 188.272 123.939, 188.036 124.529, 188.079 125.583 M 193.079 126.583 C 193.127 127.748, 193.364 127.985, 193.683 127.188 C 193.972 126.466, 193.936 125.603, 193.604 125.271 C 193.272 124.939, 193.036 125.529, 193.079 126.583 M 132.079 134.583 C 132.127 135.748, 132.364 135.985, 132.683 135.188 C 132.972 134.466, 132.936 133.603, 132.604 133.271 C 132.272 132.939, 132.036 133.529, 132.079 134.583 M 98 144.313 C 98 144.485, 99.463 145.948, 101.250 147.563 L 104.500 150.500 101.563 147.250 C 98.825 144.221, 98 143.540, 98 144.313 M 124.924 147.750 L 122.500 150.500 125.250 148.076 C 126.763 146.742, 128 145.505, 128 145.326 C 128 144.541, 127.190 145.180, 124.924 147.750 M 115.872 155.750 C 114.629 157.336, 114.664 157.371, 116.250 156.128 C 117.213 155.373, 118 154.585, 118 154.378 C 118 153.555, 117.179 154.084, 115.872 155.750 M 110 155.378 C 110 155.585, 110.787 156.373, 111.750 157.128 C 113.336 158.371, 113.371 158.336, 112.128 156.750 C 110.821 155.084, 110 154.555, 110 155.378 M 73.924 174.250 C 76.189 176.818, 76.876 177, 84.341 177 C 88.737 177, 92.040 176.707, 91.681 176.348 C 91.323 175.989, 87.816 175.790, 83.889 175.904 C 77.688 176.086, 76.404 175.810, 74.125 173.806 L 71.500 171.500 73.924 174.250 M 137.750 176.732 C 140.088 176.943, 143.912 176.943, 146.250 176.732 C 148.588 176.522, 146.675 176.349, 142 176.349 C 137.325 176.349, 135.412 176.522, 137.750 176.732 M 66 177.378 C 66 177.585, 66.787 178.373, 67.750 179.128 C 69.336 180.371, 69.371 180.336, 68.128 178.750 C 66.821 177.084, 66 176.555, 66 177.378 M 107 180.378 C 107 180.585, 107.787 181.373, 108.750 182.128 C 110.336 183.371, 110.371 183.336, 109.128 181.750 C 107.821 180.084, 107 179.555, 107 180.378 M 162.872 181.750 C 161.629 183.336, 161.664 183.371, 163.250 182.128 C 164.916 180.821, 165.445 180, 164.622 180 C 164.415 180, 163.627 180.787, 162.872 181.750 M 82.500 189 C 86.874 193.400, 90.678 197, 90.953 197 C 91.228 197, 87.874 193.400, 83.500 189 C 79.126 184.600, 75.322 181, 75.047 181 C 74.772 181, 78.126 184.600, 82.500 189 M 145.469 187.250 L 139.500 193.500 145.750 187.531 C 149.188 184.249, 152 181.436, 152 181.281 C 152 180.542, 151.013 181.444, 145.469 187.250 M 67.500 186 C 68.495 187.100, 69.535 188, 69.810 188 C 70.085 188, 69.495 187.100, 68.500 186 C 67.505 184.900, 66.465 184, 66.190 184 C 65.915 184, 66.505 184.900, 67.500 186 M 147.924 190.750 L 145.500 193.500 148.250 191.076 C 149.762 189.742, 151 188.505, 151 188.326 C 151 187.541, 150.190 188.180, 147.924 190.750 M 132.872 198.750 C 131.629 200.336, 131.664 200.371, 133.250 199.128 C 134.916 197.821, 135.445 197, 134.622 197 C 134.415 197, 133.627 197.787, 132.872 198.750 M 88.500 200 C 89.495 201.100, 90.535 202, 90.810 202 C 91.085 202, 90.495 201.100, 89.500 200 C 88.505 198.900, 87.465 198, 87.190 198 C 86.915 198, 87.505 198.900, 88.500 200 M 136.872 200.750 C 135.629 202.336, 135.664 202.371, 137.250 201.128 C 138.916 199.821, 139.445 199, 138.622 199 C 138.415 199, 137.627 199.787, 136.872 200.750 M 142.405 202.250 L 140.500 204.500 142.750 202.595 C 144.864 200.805, 145.455 200, 144.655 200 C 144.465 200, 143.453 201.012, 142.405 202.250 M 86 204.378 C 86 204.585, 86.787 205.373, 87.750 206.128 C 89.336 207.371, 89.371 207.336, 88.128 205.750 C 86.821 204.084, 86 203.555, 86 204.378" stroke="none" fill="#faf9f9" fill-rule="evenodd"/></svg>