<svg xmlns="http://www.w3.org/2000/svg" width="1200" height="1200" viewBox="0 0 1200 1200" version="1.1"><path d="M 558.500 1.024 C 455.181 8.541, 357.465 41.467, 271.500 97.732 C 262.493 103.627, 238.678 120.476, 236.881 122.225 C 236.121 122.964, 232.499 125.815, 228.832 128.560 C 209.425 143.088, 170.625 179.623, 150.841 202 C 134.477 220.510, 114.102 246.923, 99.931 268 C 85.443 289.548, 59.568 336.782, 50.081 359 C 21.148 426.759, 5.734 490.230, 0.903 561.500 C -0.604 583.738, 0.256 638.471, 2.427 658.500 C 7.577 706.009, 15.780 744.793, 29.709 787.500 C 51.948 855.684, 90.335 925.308, 136.392 981 C 158.750 1008.035, 192.905 1042.356, 216.500 1061.498 C 220.350 1064.621, 224.400 1067.934, 225.500 1068.860 C 228.060 1071.013, 241.592 1081.291, 250 1087.467 C 260.134 1094.911, 283.333 1109.990, 296 1117.366 C 302.325 1121.049, 308.625 1124.720, 310 1125.523 C 315.600 1128.796, 348.012 1144.976, 355 1147.987 C 359.125 1149.764, 363.850 1151.813, 365.500 1152.541 C 376.953 1157.587, 405.069 1168.145, 415.500 1171.316 C 441.621 1179.257, 453.699 1182.516, 471.500 1186.430 C 488.902 1190.256, 512.986 1194.324, 528 1195.974 C 533.225 1196.549, 539.869 1197.282, 542.765 1197.605 C 564.510 1200.026, 613.427 1200.720, 640.067 1198.986 C 705.213 1194.746, 778.735 1177.270, 833.500 1153.007 C 835.700 1152.033, 840.875 1149.776, 845 1147.994 C 856.627 1142.968, 883.130 1129.444, 897.500 1121.203 C 963.497 1083.355, 1021.137 1033.909, 1069.681 973.500 C 1082.548 957.488, 1094.914 939.978, 1109.580 917 C 1131.358 882.879, 1153.476 836.506, 1167.793 794.945 C 1185.294 744.140, 1196.499 687.243, 1199.224 635.344 C 1199.373 632.508, 1199.834 630.397, 1200.248 630.653 C 1200.661 630.909, 1201 616.691, 1201 599.059 C 1201 581.427, 1200.619 567, 1200.152 567 C 1199.686 567, 1199.011 561.856, 1198.652 555.569 C 1198.293 549.282, 1197.567 540.844, 1197.040 536.819 C 1196.512 532.794, 1195.808 527.025, 1195.475 524 C 1190.319 477.203, 1172.229 409.854, 1153.439 367.500 C 1152.219 364.750, 1150.174 360.025, 1148.894 357 C 1146.326 350.930, 1127.992 313.968, 1125.581 310 C 1124.746 308.625, 1121.042 302.325, 1117.350 296 C 1086.898 243.831, 1044.097 191.658, 999.596 152.462 C 995.248 148.633, 991.198 145.041, 990.596 144.480 C 988.355 142.395, 975.973 132.289, 967.871 125.932 C 908.398 79.273, 835.248 42.398, 761 21.650 C 722.395 10.861, 680.955 3.733, 641 1.009 C 624.744 -0.100, 573.820 -0.090, 558.500 1.024 M 574.977 15.305 C 574.715 15.539, 569.325 15.996, 563 16.320 C 511.533 18.957, 449.260 32.038, 398 50.978 C 371.656 60.712, 332.172 79.091, 311.925 91.044 C 306.377 94.320, 301.664 97, 301.453 97 C 300.931 97, 285.798 106.739, 273 115.310 C 221.780 149.617, 172.262 196.539, 133.672 247.336 C 67.686 334.193, 26.332 441.169, 17.443 548 C 17.100 552.125, 16.610 556.625, 16.356 558 C 15.436 562.959, 15.181 623.776, 16.030 635.500 C 18.122 664.395, 21.945 693.508, 26.600 716 C 52.338 840.362, 113.877 947.774, 209.500 1035.238 C 216.292 1041.450, 237.455 1059.014, 243.500 1063.455 C 245.700 1065.072, 247.725 1066.654, 248 1066.972 C 250.451 1069.807, 290.201 1096.340, 304.500 1104.687 C 371.429 1143.753, 446.410 1169.725, 520.500 1179.505 C 545.904 1182.859, 564.951 1184.181, 593 1184.539 C 660.325 1185.397, 719.960 1176.269, 782.500 1155.532 C 812.917 1145.446, 824.715 1140.728, 852.500 1127.537 C 937.117 1087.367, 1016.841 1020.996, 1072.348 944.512 C 1112.187 889.617, 1139.472 835.005, 1160.288 768.500 C 1171.378 733.068, 1180.675 681.489, 1183.721 638.500 C 1185.111 618.875, 1184.477 567.110, 1182.606 547.500 C 1173.012 446.942, 1140.607 356.147, 1084.637 273 C 1073.447 256.376, 1058.002 235.748, 1049.030 225.446 C 1047.089 223.217, 1044.186 219.842, 1042.580 217.946 C 1029.524 202.541, 1002.146 174.964, 986 160.958 C 980.775 156.425, 975.150 151.529, 973.500 150.077 C 969.064 146.174, 948.499 130.340, 939.413 123.832 C 883.586 83.844, 821.206 54.184, 754 35.672 C 721.471 26.712, 682.627 19.710, 653 17.466 C 648.325 17.111, 643.375 16.612, 642 16.356 C 638.711 15.744, 575.595 14.754, 574.977 15.305 M 570 22.626 C 465.298 28.796, 367.463 61.132, 282 117.813 C 244.088 142.958, 216.420 166.057, 182.958 200.500 C 131.348 253.624, 87.979 321.667, 60.456 392.696 C 44.602 433.613, 30.595 489.599, 26.481 528.500 C 26.132 531.800, 25.678 535.625, 25.472 537 C 22.069 559.748, 21.430 624.047, 24.325 652.500 C 34.323 750.749, 64.416 836.732, 116.668 916.349 C 148.760 965.248, 189.957 1011.118, 233.500 1046.436 C 272.229 1077.848, 306.583 1099.812, 349.500 1120.599 C 416.007 1152.813, 490.599 1172.448, 562.791 1176.744 C 589.564 1178.337, 639.630 1177.433, 658.481 1175.016 C 662.341 1174.521, 667.750 1173.871, 670.500 1173.573 C 720.893 1168.104, 781.783 1151.403, 832 1129.276 C 894.009 1101.954, 952.696 1062.571, 1000 1016.538 C 1033.465 983.971, 1056.212 956.773, 1080.741 920 C 1097.039 895.566, 1105.042 881.786, 1117.332 857 C 1125.576 840.373, 1126.910 837.491, 1133.534 822 C 1151.163 780.770, 1167.109 722.653, 1172.356 680.500 C 1172.630 678.300, 1173.314 672.900, 1173.878 668.500 C 1175.105 658.907, 1175.919 649.880, 1177.019 633.636 C 1177.873 621.023, 1177.496 566.983, 1176.482 556.500 C 1172.273 513.026, 1168.934 493.248, 1159.432 455.500 C 1141.002 382.287, 1104.460 307.607, 1057.724 247.641 C 1016.294 194.483, 971.791 153.243, 916.500 116.769 C 838.050 65.018, 749.006 33.758, 653.500 24.440 C 638.270 22.954, 584.325 21.782, 570 22.626 M 580.966 28.314 C 580.710 28.541, 574.323 29.007, 566.774 29.348 C 559.224 29.689, 551.349 30.188, 549.274 30.456 C 547.198 30.724, 540.775 31.446, 535 32.059 C 483.538 37.529, 427.921 52.130, 377 73.541 C 360.154 80.623, 324.521 98.698, 309 108.032 C 248.437 144.456, 199.453 187.035, 153.146 243.507 C 142.030 257.063, 117.319 292.844, 107.225 310 C 92.950 334.262, 74.700 372.340, 65.299 397.481 C 49.902 438.652, 38.055 485.240, 33.508 522.500 C 33.172 525.250, 32.485 530.875, 31.982 535 C 26.683 578.428, 27.528 636.532, 34.112 681.500 C 48.079 776.885, 86.557 869.421, 142.840 942.978 C 159.594 964.873, 188.992 998.311, 202.186 1010.478 C 239.678 1045.052, 266.963 1066.172, 302 1087.741 C 318.817 1098.093, 324.077 1100.941, 349.500 1113.459 C 418.731 1147.547, 488.958 1165.978, 568.500 1170.935 C 585.494 1171.994, 626.702 1171.507, 644.500 1170.036 C 709.403 1164.671, 774.829 1148.294, 828.739 1123.917 C 831.071 1122.863, 833.234 1122, 833.547 1122 C 833.859 1122, 842.302 1117.896, 852.308 1112.879 C 895.902 1091.024, 930.810 1068.275, 967 1038.137 C 987.715 1020.887, 1015.127 993.880, 1032.500 973.607 C 1035.250 970.398, 1037.955 967.261, 1038.511 966.636 C 1051.782 951.727, 1077.398 915.388, 1092.534 890 C 1134.429 819.725, 1161.595 736.215, 1168.978 655 C 1169.553 648.675, 1170.249 641.475, 1170.524 639 C 1171.528 629.971, 1171.820 582.125, 1170.953 568.500 C 1164.877 472.951, 1138.334 386.444, 1090.776 307.192 C 1071.922 275.773, 1045.413 239.681, 1026 218.999 C 1025.175 218.120, 1020.073 212.609, 1014.661 206.752 C 980.191 169.444, 925.722 126.993, 878.847 100.903 C 869.238 95.554, 834.499 78, 833.524 78 C 833.224 78, 831.071 77.137, 828.739 76.083 C 778.158 53.211, 711.446 35.906, 655 31.013 C 648.125 30.417, 640.700 29.706, 638.500 29.431 C 633.277 28.780, 581.573 27.776, 580.966 28.314 M 752.530 72.967 C 751.539 74.062, 750.996 75.725, 751.306 76.717 C 751.612 77.698, 752.525 80.567, 753.336 83.094 C 755.076 88.515, 754.448 89.946, 750.023 90.644 C 744.972 91.440, 725.678 87.405, 715.742 83.475 C 711.006 81.602, 706.756 89.583, 709.560 95.081 C 710.755 97.423, 711.732 97.768, 720.087 98.797 C 729.173 99.916, 738.708 103.415, 738.311 105.485 C 737.945 107.392, 731.773 108.119, 724.942 107.059 C 714.900 105.501, 707.445 105.698, 705.571 107.571 C 704.707 108.436, 704 110.417, 704 111.974 C 704 114.250, 704.617 115.019, 707.149 115.902 C 710.873 117.200, 728.900 117.324, 734.220 116.088 C 738.259 115.150, 740.515 116.494, 739.471 119.215 C 738.060 122.892, 723.864 127.998, 715.040 128.002 C 708.305 128.006, 704.433 131.694, 703.495 139 C 703.106 142.025, 701.296 148.132, 699.473 152.571 C 695.456 162.352, 694.461 167.125, 695.887 169.788 C 697.052 171.966, 701.872 173.058, 719 175.026 C 747.196 178.265, 762.280 183.054, 782.827 195.290 C 791 200.157, 794.754 203.204, 800.827 209.893 C 811.339 221.474, 817.437 226.189, 821.405 225.802 C 826.202 225.334, 826.087 221.417, 820.977 211.341 L 816.784 203.070 820.416 198.827 C 822.552 196.332, 824.827 192.062, 825.939 188.462 C 828.261 180.946, 834 152.304, 834 148.235 C 834 143.834, 830.961 140.739, 823.069 137.101 C 819.181 135.309, 816 133.234, 816 132.489 C 816 129.111, 822.361 130.082, 831.807 134.902 C 836.043 137.062, 840.539 137.580, 842.771 136.163 C 844.409 135.123, 851 121.400, 851 119.029 C 851 115.991, 847.872 113.220, 839.205 108.579 C 822.659 99.721, 804.824 93.173, 790.335 90.638 C 780.886 88.984, 772.171 106.231, 778.859 113.350 C 780.297 114.881, 782.835 116.111, 785.359 116.500 C 793.864 117.814, 797.937 119.702, 797.985 122.353 C 797.993 122.822, 794.258 123.005, 789.685 122.759 C 776.155 122.031, 773.508 123.144, 762.095 134.357 C 750.559 145.691, 748.910 146.182, 742.063 140.322 C 738.074 136.907, 737.896 136.549, 739.574 135.322 C 740.569 134.595, 742.143 134, 743.072 134 C 744.002 134, 746.118 132.614, 747.774 130.920 C 750.708 127.919, 751.240 126.504, 754.508 113.014 C 756.593 104.407, 757.845 102.733, 765.081 98.876 C 772.913 94.702, 774.591 92.090, 774.111 84.827 C 773.961 82.568, 769.442 77.333, 764.636 73.851 C 759.956 70.461, 755.118 70.108, 752.530 72.967 M 403.303 83.500 C 401.396 84.836, 401.274 85.410, 402.193 88.750 C 402.760 90.813, 404.074 94.170, 405.112 96.210 C 407.489 100.882, 407.491 103.683, 405.117 107.575 C 403.445 110.318, 401.361 111.282, 385.871 116.478 C 376.317 119.683, 365.986 123.556, 362.913 125.085 C 352.690 130.171, 348.422 137.874, 352.557 143.777 C 355.829 148.450, 363.251 146.197, 379.390 135.634 C 383.850 132.714, 390.425 128.857, 394 127.062 C 397.575 125.268, 400.950 123.441, 401.500 123.003 C 403.544 121.376, 410.905 119.759, 413.409 120.388 C 418.087 121.562, 416.489 124.470, 404.706 136.229 C 381.965 158.924, 369.948 176.555, 365.573 193.644 C 362.496 205.661, 364.591 214.077, 371.241 216.416 C 377.795 218.721, 382.586 211.707, 385.528 195.500 C 389.126 175.682, 394.634 164.653, 407.867 150.765 C 424.966 132.819, 444.526 126.464, 466.008 131.874 C 475.746 134.327, 481.973 138.242, 496.500 151.050 C 501.450 155.414, 507.438 159.734, 509.807 160.650 C 513.777 162.185, 514.379 162.190, 517.481 160.710 C 522.979 158.089, 522.588 152.488, 516.301 143.797 C 505.695 129.137, 485.399 119.084, 461.107 116.461 C 457.409 116.062, 450.124 116.316, 443.824 117.066 C 433.960 118.239, 432.777 118.205, 431.283 116.712 C 429.751 115.179, 429.757 114.926, 431.380 113.133 C 433.547 110.738, 450.451 104.429, 458.434 103.036 C 461.697 102.466, 467.772 101.999, 471.934 101.998 C 481.034 101.997, 485.748 100.006, 488.177 95.141 C 492.911 85.661, 481.976 83.540, 461.407 89.948 C 453.891 92.290, 430.903 97, 426.990 97 C 422.822 97, 419.049 93.290, 418.345 88.500 C 418.022 86.300, 417.051 83.938, 416.187 83.250 C 414.018 81.523, 405.901 81.680, 403.303 83.500 M 792.667 102.667 C 792.300 103.033, 792 104.072, 792 104.976 C 792 108.147, 794.616 110.238, 799.576 111.032 C 807.318 112.271, 815.076 115.611, 820.359 119.981 C 825.414 124.162, 828.912 125.016, 830.947 122.564 C 833.435 119.566, 828.486 114.555, 819.776 111.254 C 816.874 110.154, 810.216 107.622, 804.981 105.627 C 795.110 101.866, 793.786 101.548, 792.667 102.667 M 784.250 133.662 C 782.490 134.372, 782.694 136.669, 784.582 137.393 C 787.006 138.323, 791 138.114, 791 137.057 C 791 136.113, 787.022 132.930, 786.027 133.079 C 785.737 133.122, 784.938 133.385, 784.250 133.662 M 717.385 141.351 C 715.387 143.637, 714.043 146.736, 712.526 152.562 C 710.942 158.642, 711.362 163, 713.532 163 C 715.918 163, 721.058 157.820, 723.549 152.903 C 726.214 147.643, 726.565 144.925, 724.965 141.934 C 723.778 139.717, 719.127 139.359, 717.385 141.351 M 805.303 141.654 C 804.872 142.776, 805.842 144.383, 808.319 146.654 C 810.328 148.494, 812.427 150, 812.985 150 C 814.997 150, 813.943 145.216, 811.364 142.636 C 808.342 139.615, 806.217 139.270, 805.303 141.654 M 771 146.994 C 771 149.730, 778.659 155.181, 781.963 154.796 C 783.890 154.571, 784.576 153.844, 784.814 151.774 C 785.065 149.596, 784.463 148.643, 781.814 147.028 C 779.991 145.917, 776.813 145.006, 774.750 145.004 C 771.669 145.001, 771 145.356, 771 146.994 M 735.636 155.636 C 732.662 158.611, 732.291 161.148, 734.506 163.363 C 737.987 166.844, 742.766 166.175, 745.062 161.884 C 746.631 158.953, 745.488 155.543, 742.477 154.171 C 738.955 152.567, 738.638 152.635, 735.636 155.636 M 802 158.465 C 802 162.942, 813.646 171.369, 816.528 168.977 C 819.206 166.754, 815.536 162.144, 808.500 158.892 C 803.637 156.645, 802 156.538, 802 158.465 M 763.942 160.938 C 756.074 163.357, 755.081 166.447, 760.250 172.426 C 762.818 175.396, 764.251 176.206, 767.076 176.286 C 774.908 176.507, 779.119 172.594, 777.593 166.513 C 776.507 162.189, 769.363 159.271, 763.942 160.938 M 790.308 173.010 C 786.958 174.359, 784.660 178.500, 785.461 181.743 C 786.622 186.438, 790.673 189.690, 797.750 191.605 L 804.282 193.373 806.641 190.631 C 811.631 184.830, 808.643 177.919, 799.442 173.975 C 794.373 171.802, 793.527 171.713, 790.308 173.010 M 588.552 184.250 C 588.085 185.766, 587.302 191.442, 586.448 199.500 C 586.099 202.800, 585.292 208.650, 584.656 212.500 L 583.500 219.500 575.635 220.335 C 570.998 220.828, 567.396 220.796, 566.859 220.259 C 566.357 219.757, 564.367 213.306, 562.436 205.923 C 560.506 198.540, 558.439 190.982, 557.845 189.126 L 556.763 185.752 548.715 186.399 C 539.232 187.161, 535.769 187.907, 534.765 189.404 C 534.361 190.007, 534.024 198.232, 534.015 207.683 C 534.002 223.178, 533.828 224.915, 532.250 225.376 C 526.757 226.978, 517.781 228.170, 517.079 227.392 C 516.637 226.901, 513.426 219.590, 509.943 211.144 C 506.460 202.698, 503.054 195.574, 502.375 195.314 C 501.199 194.862, 489.391 197.758, 483.918 199.840 C 481.369 200.810, 481.347 200.909, 482.158 207.661 C 483.301 217.168, 484.606 226.925, 485.547 233 C 485.760 234.375, 485.612 235.957, 485.217 236.515 C 484.610 237.375, 471.569 242, 469.751 242 C 469.151 242, 467.754 239.750, 456.553 220.750 C 453.392 215.387, 450.411 211, 449.929 211 C 449.448 211, 447.129 211.852, 444.777 212.894 C 442.425 213.935, 438.132 215.814, 435.239 217.070 C 431.455 218.711, 430.112 219.795, 430.457 220.926 C 431.311 223.730, 438.035 249.418, 438.638 252.181 C 439.182 254.676, 438.728 255.112, 432.136 258.431 C 428.239 260.394, 424.666 262, 424.198 262 C 423.729 262, 418.497 255.700, 412.571 248 C 406.645 240.300, 401.391 234, 400.896 234 C 399.393 234, 383.103 243.424, 382.640 244.561 C 382.402 245.144, 383.554 248.744, 385.198 252.561 C 391.326 266.782, 395 276.302, 395 277.958 C 395 279.667, 390.382 283.394, 384.216 286.662 L 380.932 288.403 368.025 275.525 L 355.118 262.646 351.309 265.299 C 349.214 266.757, 345.700 269.528, 343.500 271.456 C 341.300 273.384, 339.163 274.970, 338.750 274.981 C 337.061 275.024, 338.393 277.968, 346.500 292.114 C 351.175 300.272, 355 307.409, 355 307.976 C 355 309.131, 348.019 315.725, 344.444 317.946 C 342.220 319.328, 341.495 318.917, 328.118 308.696 C 320.419 302.813, 313.765 298, 313.333 298 C 312.157 298, 298 312.288, 298 313.475 C 298 314.039, 302.712 320.575, 308.472 328 C 314.231 335.425, 318.956 341.973, 318.971 342.550 C 319.008 343.908, 309.138 355, 307.893 355 C 307.372 355, 300.272 351.175, 292.114 346.500 C 283.957 341.825, 276.962 338, 276.570 338 C 276.178 338, 275.306 338.563, 274.632 339.250 C 272.601 341.322, 263 354.252, 263 354.915 C 263 355.255, 268.205 360.700, 274.566 367.016 C 280.928 373.332, 286.584 379.315, 287.134 380.311 C 287.929 381.748, 287.243 383.447, 283.818 388.530 C 281.443 392.053, 278.795 394.951, 277.934 394.968 C 277.073 394.986, 269.423 392.118, 260.934 388.595 C 249.734 383.947, 245.152 382.475, 244.233 383.232 C 242.597 384.577, 233.992 399.858, 234.026 401.358 C 234.040 401.986, 240.172 407, 247.653 412.500 C 255.133 418, 261.451 423.015, 261.693 423.644 C 262.419 425.532, 255.146 439, 253.401 439 C 252.536 439, 248.604 438.097, 244.664 436.993 C 240.724 435.890, 233.481 433.856, 228.570 432.474 C 223.658 431.091, 219.337 430.307, 218.967 430.730 C 217.953 431.892, 210.999 449.030, 211.007 450.350 C 211.013 451.414, 218.788 456.146, 233.500 464.039 C 242.734 468.993, 242.586 468.706, 239.996 476.650 C 238.768 480.418, 237.230 484.070, 236.580 484.766 C 235.629 485.784, 232.084 485.561, 218.449 483.624 C 209.127 482.300, 201.126 481.565, 200.668 481.990 C 199.540 483.039, 195 498.825, 195 501.699 C 195 502.964, 195.475 504, 196.055 504 C 196.635 504, 199.034 504.877, 201.385 505.948 C 203.737 507.019, 208.100 508.851, 211.081 510.018 C 219.994 513.509, 228 517.233, 227.999 517.887 C 227.992 521.283, 224.875 533.469, 223.840 534.143 C 223.103 534.623, 214.875 534.971, 205.555 534.917 C 189.420 534.825, 188.575 534.916, 187.863 536.841 C 187.011 539.145, 184.996 556.320, 185.516 556.846 C 185.704 557.036, 188.927 558.002, 192.679 558.992 C 214.823 564.839, 219.552 566.192, 220.028 566.812 C 220.319 567.190, 220.395 571.012, 220.197 575.306 C 219.762 584.758, 220.654 584.229, 201.378 586.459 C 180.732 588.847, 183 587.169, 183 600.050 C 183 612.219, 182.589 611.541, 190.500 612.427 C 201.579 613.668, 212.691 615.158, 216 615.846 L 219.500 616.573 220.051 624.537 C 220.354 628.917, 220.301 632.868, 219.933 633.319 C 219.293 634.101, 202.642 638.870, 192.860 641.073 C 185.170 642.806, 184.941 643.210, 186.145 652.932 C 187.909 667.190, 186.019 666, 206.904 666 L 224.858 666 226.055 671.750 C 228.380 682.917, 228.510 682.623, 219.500 686.592 C 215.100 688.530, 207.967 691.521, 203.649 693.239 C 199.331 694.957, 195.560 696.983, 195.269 697.741 C 194.795 698.976, 199.295 717.628, 200.312 718.645 C 200.540 718.873, 205.851 718.348, 212.113 717.478 C 218.376 716.608, 226.200 715.520, 229.500 715.060 C 232.800 714.599, 235.775 714.386, 236.111 714.584 C 236.654 714.906, 242 729.140, 242 730.265 C 242 730.815, 233.668 735.894, 221.173 742.962 C 216.043 745.864, 211.625 748.813, 211.356 749.515 C 210.897 750.712, 217.341 767.644, 218.859 769.229 C 219.243 769.629, 226.942 767.942, 235.967 765.479 C 244.993 763.015, 252.962 761, 253.676 761 C 254.883 761, 262 773.757, 262 775.920 C 262 776.453, 255.874 781.511, 248.387 787.159 C 240.899 792.806, 234.546 798.019, 234.269 798.743 C 233.835 799.873, 241.688 814.836, 244.056 817.391 C 244.528 817.900, 251.714 815.434, 260.809 811.641 C 269.569 807.989, 277.358 805.004, 278.118 805.009 C 279.250 805.016, 286.563 814.941, 287.853 818.221 C 288.048 818.715, 282.433 824.955, 275.376 832.087 C 265.809 841.755, 262.793 845.391, 263.522 846.378 C 264.060 847.105, 265.717 849.456, 267.204 851.600 C 268.691 853.745, 271.250 857.075, 272.890 859 L 275.873 862.500 279.686 860.505 C 281.784 859.407, 288.829 855.470, 295.343 851.755 C 301.856 848.040, 307.558 845, 308.013 845 C 309.157 845, 319 856.154, 319 857.450 C 319 858.027, 314.288 864.575, 308.528 872 C 302.769 879.425, 298.044 886.029, 298.029 886.675 C 297.993 888.134, 311.994 902, 313.502 902 C 314.106 902, 317.282 899.862, 320.559 897.250 C 331.713 888.359, 342.108 880.869, 342.855 881.185 C 345.143 882.152, 354.897 890.698, 354.944 891.777 C 354.975 892.479, 351.175 899.728, 346.500 907.886 C 341.825 916.043, 338 923.179, 338 923.744 C 338 924.308, 339.062 925.466, 340.360 926.316 C 341.658 927.166, 343.345 928.462, 344.110 929.196 C 346.953 931.922, 353.817 937, 354.660 937 C 355.140 937, 360.700 931.795, 367.016 925.434 C 373.332 919.072, 379.259 913.447, 380.186 912.933 C 382.357 911.729, 395 919.520, 395 922.061 C 395 923.684, 393.423 928.065, 390.523 934.500 C 385.596 945.432, 381.973 955.363, 382.675 956.010 C 385.439 958.556, 400.195 966.139, 401.449 965.658 C 402.278 965.340, 407.495 958.987, 413.043 951.540 C 418.591 944.093, 423.562 938, 424.090 938 C 424.618 938, 428.235 939.604, 432.129 941.565 C 440.419 945.740, 440.219 943.388, 434.159 965.457 C 431.052 976.772, 430.350 980.604, 431.276 981.196 C 433.745 982.774, 446.921 988.006, 449.038 988.249 C 450.874 988.460, 452.593 986.167, 459.860 973.821 C 464.612 965.748, 468.795 958.853, 469.156 958.499 C 469.838 957.829, 482.612 961.749, 484.677 963.262 C 485.333 963.742, 485.664 965.535, 485.425 967.312 C 485.189 969.065, 484.076 976.791, 482.951 984.479 C 481.129 996.938, 481.072 998.580, 482.428 999.571 C 484.435 1001.039, 500.617 1005.294, 502.193 1004.769 C 502.869 1004.544, 506.421 997.191, 510.087 988.430 L 516.752 972.500 520.626 972.730 C 522.757 972.857, 526.638 973.464, 529.250 974.080 L 534 975.199 534 993.131 C 534 1006.559, 534.314 1011.181, 535.250 1011.532 C 535.938 1011.790, 540.775 1012.642, 546 1013.425 C 553.265 1014.514, 555.759 1014.572, 556.599 1013.674 C 557.204 1013.028, 559.377 1006.023, 561.428 998.108 C 566.819 977.304, 565.430 979.230, 574.666 979.762 C 578.975 980.010, 582.813 980.503, 583.195 980.857 C 583.577 981.211, 584.826 988.925, 585.970 998 C 587.114 1007.075, 588.250 1015.063, 588.494 1015.750 C 588.812 1016.647, 592.043 1017, 599.950 1017 C 610.559 1017, 610.980 1016.918, 611.449 1014.750 C 611.717 1013.513, 612.802 1005.596, 613.860 997.159 C 614.917 988.721, 616.169 981.465, 616.641 981.034 C 617.114 980.603, 621.011 980.002, 625.303 979.698 C 634.514 979.047, 633.130 977.128, 638.584 998.108 C 640.642 1006.023, 642.685 1012.975, 643.124 1013.556 C 643.784 1014.428, 653.267 1013.763, 664.750 1012.038 C 664.888 1012.017, 665.007 1004.237, 665.015 994.750 C 665.024 985.263, 665.379 976.951, 665.806 976.280 C 666.446 975.272, 678.866 972, 682.052 972 C 683.003 972, 684.044 974.185, 689.204 987 C 690.865 991.125, 693.073 996.388, 694.112 998.695 C 695.150 1001.002, 696 1003.365, 696 1003.945 C 696 1004.525, 696.691 1005, 697.536 1005 C 700.334 1005, 715.903 1000.793, 717.385 999.636 C 718.652 998.648, 718.520 996.367, 716.369 982.106 C 715.009 973.089, 714.102 965.177, 714.352 964.525 C 714.736 963.523, 728.156 957.981, 730.160 957.995 C 730.523 957.998, 734.257 963.963, 738.457 971.250 C 742.657 978.538, 746.929 985.603, 747.952 986.950 L 749.810 989.400 759.934 985.078 C 767.770 981.731, 769.947 980.387, 769.570 979.127 C 767.058 970.739, 761 947.684, 761 946.516 C 761 945.031, 774.390 937.603, 776 938.195 C 776.456 938.363, 781.608 944.688, 787.447 952.250 C 793.286 959.813, 798.621 966, 799.303 966 C 800.463 966, 815.522 957.648, 817.321 956.006 C 817.773 955.594, 815.186 948.020, 811.571 939.175 C 807.957 930.330, 805.009 922.509, 805.021 921.796 C 805.032 921.083, 807.968 918.577, 811.545 916.228 C 816.533 912.951, 818.450 912.178, 819.774 912.911 C 820.723 913.437, 826.668 919.072, 832.984 925.434 C 839.300 931.795, 844.846 937, 845.308 937 C 846.664 937, 861.134 925.815, 861.706 924.325 C 861.993 923.577, 858.351 916.217, 853.614 907.970 C 848.876 899.722, 845.026 892.418, 845.057 891.737 C 845.104 890.717, 850.011 886.374, 856.571 881.547 C 857.503 880.862, 861.797 883.599, 871.873 891.297 C 879.577 897.184, 886.264 902, 886.733 902 C 888.255 902, 902 888.435, 901.988 886.946 C 901.982 886.151, 897.440 879.650, 891.895 872.500 C 886.350 865.350, 881.587 858.951, 881.311 858.281 C 880.810 857.062, 890.598 845, 892.088 845 C 892.521 845, 899.541 848.823, 907.688 853.496 C 915.835 858.169, 923.008 861.994, 923.630 861.996 C 924.889 862, 930.194 855.760, 934.500 849.209 L 937.320 844.918 924.660 832.123 C 917.697 825.086, 912 819.023, 912 818.650 C 912 817.071, 920.576 805, 921.697 805 C 922.918 805, 931.671 808.179, 935.500 810.013 C 941.123 812.706, 952.728 817.223, 954.358 817.352 C 955.702 817.459, 957.565 815.152, 961.102 809 C 963.791 804.325, 965.992 799.948, 965.995 799.273 C 965.998 798.598, 959.700 793.236, 952 787.359 C 944.300 781.481, 938 776.285, 938 775.811 C 938 774.024, 945.069 761, 946.039 761 C 947.336 761, 961.062 764.510, 971.851 767.601 C 976.444 768.917, 980.557 769.773, 980.993 769.505 C 981.973 768.899, 989.013 751.453, 988.967 749.743 C 988.948 749.059, 982.593 744.900, 974.845 740.500 C 967.096 736.100, 960.125 732.048, 959.354 731.496 C 958.167 730.645, 958.271 729.474, 960.034 723.857 C 963.061 714.213, 963.270 714.046, 971 715.079 C 974.575 715.557, 982.436 716.615, 988.468 717.430 C 996.777 718.553, 999.611 718.629, 1000.159 717.743 C 1001.477 715.610, 1005.229 699.039, 1004.704 697.670 C 1004.420 696.931, 997.283 693.507, 988.844 690.063 C 980.405 686.619, 973.121 683.444, 972.657 683.007 C 971.934 682.327, 972.511 677.855, 974.558 668.250 C 975.035 666.016, 975.165 666, 993.440 666 L 1011.841 666 1012.401 663.250 C 1013.320 658.736, 1015.014 643.681, 1014.645 643.312 C 1014.457 643.123, 1011.872 642.335, 1008.901 641.560 C 1005.931 640.784, 999.900 639.193, 995.500 638.025 C 991.100 636.856, 985.813 635.455, 983.750 634.911 L 980 633.923 980 625.520 C 980 620.899, 980.418 616.859, 980.930 616.543 C 981.805 616.003, 986.337 615.336, 1005.500 612.928 C 1017.989 611.360, 1017 612.470, 1017 600.012 L 1017 589.159 1014.250 588.620 C 1012.737 588.324, 1005.650 587.341, 998.500 586.435 C 979.101 583.978, 980.553 584.899, 980.213 574.828 L 979.927 566.317 986.713 564.552 C 990.446 563.582, 996.650 561.928, 1000.500 560.877 C 1004.350 559.826, 1009.188 558.506, 1011.251 557.943 L 1015.002 556.919 1014.436 551.710 C 1013.725 545.171, 1012.127 535.793, 1011.639 535.306 C 1011.437 535.103, 1003.372 534.839, 993.718 534.719 C 984.063 534.598, 975.909 534.245, 975.598 533.932 C 975.286 533.620, 974.304 529.849, 973.416 525.553 C 972.069 519.039, 972.024 517.601, 973.150 516.894 C 973.893 516.428, 981.362 513.241, 989.750 509.813 C 1002.153 504.743, 1005 503.212, 1005 501.608 C 1005 498.465, 1000.857 483.616, 999.622 482.336 C 998.824 481.508, 996.913 481.429, 993 482.060 C 977.977 484.484, 964.477 485.877, 963.684 485.084 C 962.851 484.251, 958.014 471.250, 958.004 469.819 C 958.002 469.445, 964.971 465.170, 973.490 460.319 C 982.010 455.469, 988.985 450.912, 988.990 450.193 C 989.002 448.666, 982.189 431.864, 981.097 430.728 C 980.689 430.303, 977.463 430.804, 973.928 431.842 C 970.392 432.880, 964.575 434.516, 961 435.478 C 957.425 436.440, 953.195 437.626, 951.601 438.113 C 945.990 439.829, 945.204 439.354, 941.513 432.025 C 939.581 428.189, 938 424.686, 938 424.240 C 938 423.795, 944.283 418.721, 951.962 412.965 C 959.641 407.209, 965.940 401.825, 965.961 401 C 965.991 399.810, 957.124 383.791, 955.582 382.249 C 955.373 382.040, 951.220 383.543, 946.351 385.590 C 926.800 393.807, 923.727 394.999, 922.146 394.979 C 920.683 394.961, 912 383.207, 912 381.245 C 912 380.819, 917.625 374.858, 924.500 368 C 931.375 361.142, 937 355.228, 937 354.858 C 937 353.437, 924.716 338, 923.585 338 C 922.929 338, 920.263 339.350, 917.661 341 C 915.059 342.650, 912.772 344, 912.578 344 C 912.384 344, 908.012 346.470, 902.863 349.489 C 897.713 352.508, 892.982 354.983, 892.349 354.989 C 890.601 355.006, 880.719 343.165, 881.294 341.744 C 881.570 341.060, 886.342 334.688, 891.898 327.584 C 897.454 320.481, 902 314.170, 902 313.559 C 902 312.297, 887.885 298, 886.638 298 C 886.190 298, 880.351 302.205, 873.662 307.345 C 856.016 320.904, 858.269 320.195, 851.167 314.422 C 847.838 311.715, 845.088 308.951, 845.057 308.280 C 844.996 306.981, 845.203 306.600, 855.386 289.196 C 859.024 282.979, 862 277.323, 862 276.627 C 862 275.573, 851.142 266.652, 846.184 263.634 C 845.134 262.994, 841.448 266.073, 832.117 275.384 C 825.162 282.323, 819.069 288, 818.576 288 C 816.578 288, 805.061 279.385, 805.032 277.870 C 805.014 276.973, 807.925 269.347, 811.500 260.924 C 815.075 252.500, 818 245.297, 818 244.917 C 818 243.728, 799.850 233.844, 798.569 234.335 C 797.900 234.592, 793.336 240.060, 788.427 246.488 C 783.517 252.915, 778.765 259.111, 777.867 260.257 C 776.359 262.182, 775.980 262.235, 772.867 260.952 C 767.146 258.594, 761 254.881, 761 253.783 C 761 252.812, 766.792 230.428, 768.866 223.384 C 769.371 221.670, 769.495 219.831, 769.142 219.296 C 768.247 217.941, 749.921 210.931, 748.909 211.556 C 748.454 211.837, 744.676 218.059, 740.513 225.382 C 729.708 244.385, 731.805 242.765, 722.164 239.554 C 717.674 238.059, 714.015 236.310, 714.033 235.668 C 714.052 235.026, 715.122 227.075, 716.412 218 C 717.702 208.925, 718.475 201.197, 718.129 200.826 C 717.049 199.668, 698.961 194.801, 697.633 195.311 C 696.939 195.577, 693.295 203.082, 689.536 211.988 L 682.700 228.182 678.100 227.537 C 672.040 226.688, 666.678 224.979, 665.765 223.605 C 665.361 222.997, 665.024 214.765, 665.015 205.311 L 665 188.123 660.250 187.394 C 657.638 186.993, 652.617 186.628, 649.092 186.583 L 642.685 186.500 639.855 197 C 638.299 202.775, 636.581 209.353, 636.038 211.619 C 633.714 221.309, 634.025 221.056, 625.279 220.361 C 621 220.021, 617.146 219.425, 616.713 219.035 C 615.754 218.171, 615.538 216.907, 613.544 200.500 C 611.160 180.880, 612.807 183, 599.950 183 C 592.012 183, 588.830 183.349, 588.552 184.250 M 580.500 259.698 C 506.622 264.499, 439.410 291.034, 382.500 337.866 C 369.902 348.233, 345.132 373.416, 334.664 386.500 C 298.102 432.200, 274.688 483.653, 264.431 540.844 C 263.114 548.183, 261.784 556.733, 261.475 559.844 C 261.166 562.955, 260.522 569.325, 260.043 574 C 259.180 582.438, 259.520 624.833, 260.512 632.500 C 264.839 665.919, 267.011 676.519, 274.751 702 C 284.137 732.900, 301.981 768.925, 321.311 796 C 326.548 803.336, 342.296 823.524, 343.939 825.007 C 344.247 825.286, 347.650 828.870, 351.500 832.971 C 357.934 839.825, 368.747 850.247, 378.551 859.043 C 390.528 869.790, 415.975 887.520, 434 897.677 C 471.732 918.940, 515.318 933.084, 560.289 938.659 C 577.570 940.802, 621.093 941.056, 636.500 939.104 C 681.127 933.450, 718.970 922.004, 755.500 903.110 C 851.023 853.705, 917.569 763.274, 935.874 658 C 939.466 637.338, 940.453 624.920, 940.445 600.500 C 940.435 575.287, 939.349 562.156, 935.460 540.256 C 919.989 453.123, 870.888 375.456, 798.253 323.223 C 749.134 287.900, 691.624 266.402, 630.500 260.514 C 623.316 259.822, 587.568 259.239, 580.500 259.698 M 144.068 279.750 C 142.439 281.262, 140.294 283.903, 139.303 285.618 C 138.311 287.333, 135.813 291.651, 133.750 295.214 C 129.425 302.686, 128.726 308, 132.070 308 C 134.972 308, 142.715 302.452, 144.424 299.148 C 145.208 297.631, 146.971 295.879, 148.341 295.254 C 151.747 293.703, 152.369 295.635, 150.888 303.163 C 149.856 308.407, 149.925 309.260, 151.520 311.023 C 153.974 313.733, 155.530 313.510, 158.658 310 C 163.872 304.148, 167.741 307.667, 164.049 314.903 C 162.922 317.113, 162 320.513, 162 322.460 C 162 325.830, 162.166 326, 165.455 326 C 170.024 326, 173.484 322.477, 175.464 315.809 C 178.902 304.233, 176.570 293.441, 169.232 286.958 C 157.992 277.028, 149.594 274.622, 144.068 279.750 M 1002.455 285.455 C 1001.105 286.805, 1000 288.524, 1000 289.275 C 1000 292.054, 1007.458 299.211, 1017.417 305.990 C 1027.927 313.144, 1032.704 318.696, 1030.362 321.038 C 1028.029 323.371, 1019.729 318.957, 1008.454 309.388 C 1002.789 304.580, 999.370 303, 994.635 303 C 988.412 303, 987.346 306.995, 991.784 313.683 C 995.397 319.128, 998.138 321.202, 1006.017 324.454 C 1009.583 325.925, 1013.288 328.050, 1014.250 329.175 C 1017.580 333.069, 1015.719 343.530, 1011.508 344.587 C 1008.822 345.262, 1005.480 343.666, 994.500 336.470 C 975.468 323.996, 954.277 317.723, 949 323 C 947.900 324.100, 947 325.480, 947 326.066 C 947 330.451, 955.598 335.921, 971.947 341.936 C 988.267 347.942, 1005.740 356.080, 1009.658 359.500 C 1012.713 362.167, 1013.310 363.554, 1015.034 372 C 1016.101 377.225, 1016.980 383.808, 1016.987 386.629 C 1017.006 394.184, 1013.562 412.171, 1010.062 422.796 C 1005.496 436.658, 1006.054 441.093, 1012.593 442.898 C 1023.137 445.809, 1027.925 433.264, 1030.081 397.075 C 1031.465 373.842, 1033.333 369.469, 1039.191 375.750 C 1044.044 380.954, 1045.666 386.655, 1046.089 400 C 1046.400 409.788, 1046.724 410.806, 1050.077 412.540 C 1058.446 416.867, 1061.750 412.073, 1060.444 397.500 C 1059 381.386, 1059.262 374.469, 1061.405 372.103 C 1062.453 370.946, 1063.636 370, 1064.034 370 C 1065.656 370, 1066.974 376.194, 1067.971 388.501 C 1069.596 408.569, 1070.527 413.134, 1073.529 415.750 C 1076.788 418.590, 1082.031 418.729, 1084.464 416.039 C 1086.364 413.940, 1086.335 413.385, 1083.697 401.500 C 1082.843 397.650, 1081.629 389.798, 1081 384.050 C 1080.371 378.303, 1079.055 369.118, 1078.077 363.638 C 1075.977 351.877, 1075.478 340.503, 1076.898 336.768 C 1077.457 335.298, 1079.252 333.404, 1080.886 332.559 C 1084.843 330.513, 1085.553 327.794, 1083.323 323.236 C 1080.784 318.048, 1077.676 317.176, 1070.001 319.500 C 1063.934 321.337, 1063.869 321.335, 1059.493 319.209 C 1052.469 315.797, 1039.009 306.814, 1024.212 295.664 C 1011.321 285.950, 1006.967 283, 1005.520 283 C 1005.184 283, 1003.805 284.105, 1002.455 285.455 M 228 294.654 C 208.693 297.597, 204.794 298.459, 199.277 301.002 C 191.335 304.662, 184.835 310.769, 177.490 321.472 C 174.281 326.149, 170.811 330.243, 169.779 330.570 C 168.746 330.898, 166.812 330.452, 165.480 329.579 C 163.442 328.244, 162.365 328.178, 158.683 329.162 C 152.911 330.706, 151.449 329.988, 148.746 324.284 C 146.173 318.856, 143.833 317.939, 138.873 320.414 C 135.441 322.125, 134.003 321.765, 133.994 319.191 C 133.991 318.261, 133.531 315.853, 132.972 313.841 C 132.025 310.428, 131.738 310.215, 128.728 310.680 C 122.551 311.634, 120.416 315.551, 121.860 323.282 C 122.557 327.011, 122.303 328.715, 120.391 333.145 C 117.246 340.432, 117.283 343.603, 120.521 344.416 C 121.907 344.764, 123.844 344.619, 124.824 344.094 C 127.297 342.771, 128.423 343.730, 131.167 349.500 L 133.546 354.500 139.613 354.160 C 144.918 353.864, 146.046 354.136, 148.590 356.325 C 151.105 358.490, 151.483 359.485, 151.372 363.665 C 151.299 366.455, 149.290 374.326, 146.622 382.276 C 140.498 400.528, 140.532 402.748, 147.131 415.548 C 152.513 425.987, 155.771 429.832, 161.839 432.903 C 170.440 437.256, 175.789 436.092, 174.034 430.249 C 172.472 425.049, 171.645 423.476, 165.847 414.671 C 162.649 409.815, 159.517 404.121, 158.887 402.018 C 156.090 392.682, 164.575 359.364, 173.726 343.751 C 177.646 337.061, 188.546 325.707, 197.971 318.495 C 206.937 311.634, 212.094 310.054, 223.435 310.694 C 228.831 310.999, 233.613 310.770, 235.250 310.128 C 237.654 309.185, 238 308.512, 237.996 304.775 C 237.992 299.748, 234.860 293.936, 232.265 294.136 C 231.294 294.211, 229.375 294.444, 228 294.654 M 212.322 327.250 C 211.885 327.938, 211.291 334.056, 211.003 340.847 C 210.514 352.357, 210.316 353.326, 208.079 355.137 C 206.760 356.206, 205.343 356.724, 204.932 356.290 C 204.520 355.855, 204.030 351.598, 203.842 346.830 C 203.549 339.399, 203.167 337.806, 201.171 335.681 C 197.103 331.352, 190.103 331.777, 185.833 336.612 C 180.046 343.165, 171.483 362.194, 169.837 372.158 C 168.333 381.264, 169.036 383.355, 174.491 385.995 C 176.965 387.193, 179.201 388.516, 179.460 388.936 C 179.720 389.355, 178.568 391.554, 176.900 393.821 C 172.598 399.671, 173.067 404.032, 178.178 405.701 C 184.098 407.633, 187.585 405.984, 195.519 397.503 C 200.938 391.710, 203.160 390, 205.269 390 C 207.832 390, 208 390.272, 208 394.418 C 208 400.822, 208.704 402, 212.530 402 C 218.234 402, 224.001 394.197, 223.985 386.500 C 223.982 385.400, 222.860 382.093, 221.490 379.151 C 220.121 376.209, 219 372.101, 219 370.024 C 219 367.946, 221.072 360.453, 223.603 353.373 C 230.060 335.318, 230.338 332.338, 225.975 327.975 C 223.652 325.652, 213.677 325.123, 212.322 327.250 M 1042.229 329.171 C 1041.553 329.847, 1041 331.155, 1041 332.078 C 1041 334.352, 1038.983 335.860, 1034.905 336.635 C 1028.375 337.875, 1028 338.391, 1028 346.125 C 1028 352.215, 1028.374 353.700, 1030.730 356.979 C 1034.361 362.030, 1038.883 365, 1042.944 365 C 1048.874 365, 1059.855 356.996, 1063.088 350.317 C 1065.536 345.261, 1065.131 342.191, 1061.360 337.235 C 1057.206 331.777, 1044.837 326.563, 1042.229 329.171 M 578.667 330.667 C 578.300 331.033, 577.975 340.146, 577.943 350.917 L 577.887 370.500 573.922 362.062 C 571.741 357.421, 569.788 353.455, 569.582 353.248 C 569.185 352.851, 553 360.777, 553 361.369 C 553 361.560, 555.138 366.286, 557.750 371.871 L 562.501 382.027 569.832 378.513 C 573.864 376.581, 577.351 375, 577.581 375 C 577.812 375, 578 404.475, 578 440.500 L 578 506 601 506 L 624 506 624 418 L 624 330 601.667 330 C 589.383 330, 579.033 330.300, 578.667 330.667 M 156.168 341.297 C 155.532 342.064, 154.729 344.103, 154.384 345.830 C 153.893 348.285, 154.144 349.118, 155.536 349.652 C 157.837 350.535, 162.230 345.616, 161.804 342.631 C 161.444 340.105, 157.862 339.257, 156.168 341.297 M 636 425.500 L 636 506 655.992 506 L 675.985 506 676.242 444.613 L 676.500 383.227 696.416 419.363 C 739.403 497.361, 744.247 506, 744.998 506 C 745.747 506, 771.127 492.270, 775.775 489.351 L 778.049 487.922 773.861 480.211 C 771.557 475.970, 765.545 465.075, 760.500 456 C 755.455 446.925, 749.385 435.900, 747.011 431.500 C 744.637 427.100, 740.661 419.900, 738.174 415.500 C 735.688 411.100, 732.189 404.800, 730.399 401.500 C 715.249 373.574, 708.999 362.500, 708.244 362.248 C 707.757 362.086, 700.416 365.774, 691.930 370.443 L 676.500 378.933 676.226 361.966 L 675.953 345 655.976 345 L 636 345 636 425.500 M 188.222 349.271 C 186.147 351.852, 181.086 362.866, 180.710 365.619 C 180.180 369.496, 181.856 372.147, 184.083 370.956 C 187.176 369.300, 193 356.826, 193 351.857 C 193 349.465, 189.562 347.604, 188.222 349.271 M 104.573 352.570 C 103.709 353.433, 102.775 355.346, 102.497 356.820 C 102.219 358.294, 101.283 362.200, 100.417 365.500 C 96.882 378.975, 97.704 381.742, 106.510 386.005 C 117.698 391.421, 129.067 392.497, 133.721 388.581 C 139.808 383.459, 144.408 369.815, 142.005 364.011 C 139.654 358.336, 134.301 360.568, 129.988 369.024 C 127.151 374.584, 125.420 373.713, 125.802 366.918 C 126.270 358.585, 125.583 357, 121.504 357 C 117.366 357, 115.556 359.348, 114.568 366 C 113.457 373.473, 109.952 377.057, 107.107 373.628 C 106.232 372.574, 106.628 370.781, 108.821 365.878 C 113.410 355.619, 113.530 354.325, 110.061 352.531 C 106.421 350.649, 106.494 350.649, 104.573 352.570 M 593 357.500 L 593 361 601 361 L 609 361 609 357.500 L 609 354 601 354 L 593 354 593 357.500 M 534 369.707 C 510.576 380.880, 478.901 389.792, 456 391.653 C 451.875 391.988, 448.420 392.321, 448.322 392.393 C 448.224 392.464, 449.236 396.730, 450.572 401.872 C 451.907 407.014, 453 411.621, 453 412.111 C 453 412.600, 448.950 413, 444 413 L 435 413 435 425 L 435 437 487.500 437 L 540 437 540 425 L 540 413 504.250 412.918 L 468.500 412.836 478.500 411.019 C 502.574 406.643, 531.595 397.331, 549.523 388.228 L 554.896 385.500 550.280 375.250 C 547.740 369.613, 545.176 365.040, 544.581 365.088 C 543.987 365.136, 539.225 367.215, 534 369.707 M 593 374.500 L 593 378 601 378 L 609 378 609 374.500 L 609 371 601 371 L 593 371 593 374.500 M 648 374.500 L 648 378 656 378 L 664 378 664 374.500 L 664 371 656 371 L 648 371 648 374.500 M 191.589 375.077 C 190.165 376.769, 189 379.274, 189 380.643 C 189 382.769, 189.402 383.087, 191.750 382.816 C 196.388 382.283, 199.935 372, 195.482 372 C 194.765 372, 193.013 373.385, 191.589 375.077 M 593 392 L 593 396 601 396 L 609 396 609 392 L 609 388 601 388 L 593 388 593 392 M 648 392 L 648 396 656 396 L 664 396 664 392 L 664 388 656 388 L 648 388 648 392 M 704 393.622 C 700.425 395.602, 697.344 397.366, 697.153 397.542 C 696.961 397.718, 697.616 399.234, 698.606 400.911 L 700.407 403.960 706.954 400.375 C 710.554 398.404, 713.662 396.639, 713.859 396.453 C 714.329 396.011, 711.665 389.997, 711.006 390.011 C 710.728 390.018, 707.575 391.643, 704 393.622 M 716.500 406.406 C 715.400 407.122, 712.364 408.916, 709.753 410.394 L 705.007 413.080 706.701 415.790 C 707.632 417.281, 708.497 418.654, 708.622 418.841 C 708.790 419.094, 720.815 412.831, 722.781 411.466 C 723.209 411.169, 719.572 405.006, 719 405.059 C 718.725 405.084, 717.600 405.690, 716.500 406.406 M 593 409.500 L 593 413 601 413 L 609 413 609 409.500 L 609 406 601 406 L 593 406 593 409.500 M 648 409.500 L 648 413 656 413 L 664 413 664 409.500 L 664 406 656 406 L 648 406 648 409.500 M 547.432 414.318 C 547.154 415.042, 547.055 420.330, 547.213 426.068 L 547.500 436.500 556.750 436.788 L 566 437.075 566 425.038 L 566 413 556.969 413 C 550.419 413, 547.798 413.362, 547.432 414.318 M 435 459.500 L 435 471 487.500 471 L 540 471 540 459.500 L 540 448 487.500 448 L 435 448 435 459.500 M 547 459.500 L 547 471 556.500 471 L 566 471 566 459.500 L 566 448 556.500 448 L 547 448 547 459.500 M 435 494.500 L 435 506 487.500 506 L 540 506 540 494.500 L 540 483 487.500 483 L 435 483 435 494.500 M 547 494.500 L 547 506 556.500 506 L 566 506 566 494.500 L 566 483 556.500 483 L 547 483 547 494.500 M 402 522.720 C 389.225 524.178, 377.167 528.962, 370.292 535.298 L 366 539.255 366 562.431 L 366 585.608 369.298 588.804 L 372.595 592 386.158 592 L 399.720 592 400.308 575.750 C 401.135 552.925, 403.093 546.858, 409.849 546.187 L 413 545.873 413 568.937 L 413 592 432.500 592 C 444.097 592, 452 591.616, 452 591.054 C 452 590.533, 453.510 587.496, 455.355 584.304 C 457.200 581.112, 461.766 572.650, 465.501 565.500 C 469.237 558.350, 474.193 549.125, 476.515 545 C 483.738 532.168, 487.155 524.847, 486.598 523.396 C 486.151 522.230, 479.435 522.026, 445.781 522.160 C 423.627 522.248, 403.925 522.500, 402 522.720 M 528 522.447 C 528 522.695, 531.600 524.772, 536 527.061 C 540.400 529.350, 544 531.595, 544 532.049 C 544 532.504, 541.146 538.192, 537.658 544.688 C 534.169 551.185, 528.936 561, 526.028 566.500 C 523.120 572, 519.505 578.750, 517.995 581.500 C 516.484 584.250, 513.161 590.438, 510.610 595.250 L 505.971 604 554.263 604 C 609.960 604, 607 603.524, 607 612.485 C 607 621.627, 611.056 621, 551.929 621 C 523.368 621, 500 621.380, 500 621.845 C 500 622.310, 500.923 623.525, 502.051 624.546 C 503.179 625.567, 506.182 629.686, 508.725 633.701 C 513.341 640.987, 513.357 641, 517.817 641 C 521.815 641, 522.785 641.500, 527.031 645.750 C 533.098 651.824, 534.900 657.167, 533.132 663.837 C 531.425 670.275, 528.194 674.604, 520.003 681.427 C 516.147 684.639, 505.906 694.532, 497.246 703.412 C 478.151 722.990, 474.467 728.954, 475.201 739.098 C 475.997 750.103, 461.193 749, 608.159 749 L 736.095 749 738.657 746.250 C 740.991 743.745, 741.178 742.921, 740.760 736.992 C 740.212 729.216, 738.555 725.754, 730.951 716.500 C 724.637 708.816, 702.860 687.205, 693.692 679.524 C 679.796 667.882, 678.415 655.085, 689.930 644.682 C 693.337 641.605, 694.735 641, 698.444 641 C 702.869 641, 702.893 640.981, 706.191 634.750 C 710.446 626.713, 722.236 614.726, 732.378 608.126 L 740.257 603 752.108 603 L 763.959 603 768.180 598.421 C 770.501 595.902, 776.698 590.999, 781.950 587.524 C 794.396 579.292, 808.142 574.142, 828.250 570.179 L 833 569.242 833 575.542 C 833 581.762, 832.961 581.850, 829.926 582.516 C 825.965 583.386, 820.080 588.565, 818.351 592.702 C 816.750 596.535, 816.392 643.271, 817.933 647.324 C 819.576 651.644, 825.023 656.927, 829.093 658.146 L 833 659.317 833 670.533 L 833 681.750 830.039 682.342 C 825.873 683.175, 819.226 689.503, 817.941 693.860 C 817.262 696.162, 816.983 706.566, 817.183 722.160 L 817.500 746.819 820.571 750.660 C 825.321 756.599, 828.981 757.997, 839.790 757.998 C 852.706 758.001, 858.504 754.820, 861.660 746.001 C 863.241 741.582, 863.467 700.221, 861.940 694.723 C 860.496 689.523, 855.605 684.262, 850.907 682.854 L 847 681.683 847.041 670.592 L 847.082 659.500 852.094 657.148 C 855.420 655.587, 858.014 653.426, 859.803 650.724 L 862.500 646.652 862.815 622.923 C 863.011 608.144, 862.724 597.690, 862.056 595.209 C 860.730 590.282, 854.281 583.440, 850.099 582.522 L 847 581.841 847 574.532 L 847 567.223 850.750 566.509 C 852.813 566.117, 855.625 565.601, 857 565.362 C 869.802 563.139, 881.771 558.164, 886.055 553.285 L 889.056 549.867 888.778 536.184 L 888.500 522.500 708.250 522.247 C 609.112 522.108, 528 522.198, 528 522.447 M 501.647 529.277 C 500.897 530.500, 498.128 535.550, 495.494 540.500 C 492.860 545.450, 485.767 558.725, 479.733 570 C 473.699 581.275, 466.720 594.325, 464.225 599 C 461.731 603.675, 456.893 612.675, 453.475 619 C 450.057 625.325, 443.436 637.700, 438.761 646.500 C 434.087 655.300, 425.200 671.950, 419.012 683.500 C 412.824 695.050, 405.720 708.325, 403.225 713 C 396.272 726.030, 385.768 745.468, 385.516 745.771 C 385.392 745.920, 376.053 741.083, 364.763 735.021 C 353.473 728.960, 343.845 724.013, 343.368 724.028 C 342.891 724.044, 339.427 729.506, 335.670 736.166 L 328.841 748.276 333.814 753.388 C 339.646 759.383, 341.301 762.406, 343.818 771.659 C 345.500 777.845, 346.052 778.701, 349.589 780.596 C 358.782 785.522, 384.202 799.117, 392.500 803.545 C 397.450 806.187, 405.964 810.744, 411.420 813.671 C 416.875 816.599, 421.414 818.883, 421.504 818.747 C 421.595 818.611, 426.677 809.764, 432.798 799.087 L 443.926 779.673 444.213 815.257 L 444.500 850.841 446.926 853.422 C 448.260 854.842, 450.960 856.450, 452.926 856.996 C 458.462 858.534, 762.472 858.241, 766.965 856.694 C 768.945 856.012, 771.410 854.044, 772.715 852.102 C 774.994 848.713, 775 848.609, 774.998 811.102 C 774.997 768.941, 774.883 768.190, 768 764.752 C 764.713 763.110, 755.053 763.003, 609.284 763.002 C 468.476 763, 453.754 763.150, 450.682 764.615 C 446.825 766.454, 444 770.593, 444 774.404 C 444 775.832, 443.791 777, 443.537 777 C 443.282 777, 434.966 772.653, 425.058 767.339 L 407.044 757.679 412.391 747.589 C 415.332 742.040, 419.203 734.800, 420.994 731.500 C 425.731 722.770, 436.951 701.897, 442.496 691.500 C 445.136 686.550, 448.636 680.025, 450.273 677 C 455.424 667.482, 466.504 646.861, 471.496 637.500 C 474.136 632.550, 477.636 626.025, 479.273 623 C 484.424 613.482, 495.504 592.861, 500.496 583.500 C 503.136 578.550, 506.636 572.025, 508.273 569 C 521.285 544.964, 523.998 539.729, 523.981 538.688 C 523.970 538.035, 520.297 535.549, 515.818 533.163 C 503.876 526.804, 503.267 526.637, 501.647 529.277 M 0.447 600 C 0.447 617.875, 0.582 625.188, 0.748 616.250 C 0.914 607.313, 0.914 592.688, 0.748 583.750 C 0.582 574.813, 0.447 582.125, 0.447 600 M 830.226 599 C 828.148 602.278, 828.007 603.634, 828.004 620.382 C 828 637.191, 828.135 638.481, 830.250 641.882 L 832.500 645.500 832.774 642.500 C 833.445 635.157, 833.585 635, 839.460 635 C 845.378 635, 846.069 635.548, 846.979 640.966 L 847.573 644.500 849.536 641.545 C 851.307 638.881, 851.500 636.809, 851.500 620.449 C 851.500 606.698, 851.157 601.666, 850.081 599.654 C 848.346 596.408, 847.005 596.233, 846.985 599.250 C 846.957 603.376, 845.704 604.129, 839.407 603.805 L 833.500 603.500 832.973 599.500 L 832.445 595.500 830.226 599 M 643.223 605.557 C 641.402 606.832, 641 608.071, 641 612.402 C 641 621.144, 640.516 621, 669.894 621 C 685.379 621, 695.879 620.600, 697.066 619.965 C 698.643 619.121, 699 617.839, 699 613.022 C 699 603.893, 699.345 604, 670 604 C 649.394 604, 645.088 604.250, 643.223 605.557 M 1061.561 614.083 C 1061.175 617.993, 1061.151 621.484, 1061.506 621.839 C 1061.861 622.195, 1063.822 622.939, 1065.863 623.493 C 1069.878 624.582, 1088 633.968, 1088 634.958 C 1088 635.663, 1084.981 636.908, 1072 641.555 C 1066.775 643.426, 1061.769 644.966, 1060.875 644.978 C 1059.116 645.002, 1058 648.805, 1058 654.775 C 1058 656.714, 1057.311 661.945, 1056.468 666.400 C 1052.862 685.466, 1050.701 695.976, 1048.910 703.167 C 1047.860 707.383, 1047 711.278, 1047 711.823 C 1047 712.367, 1048.962 713.480, 1051.359 714.297 L 1055.718 715.783 1056.322 707.228 C 1056.654 702.524, 1057.329 698.271, 1057.822 697.778 C 1059.110 696.490, 1088.234 701.925, 1105.368 706.651 C 1110.246 707.996, 1114.330 708.963, 1114.445 708.798 C 1114.560 708.634, 1115.184 705.575, 1115.830 702 C 1116.477 698.425, 1117.256 694.589, 1117.560 693.476 C 1118.076 691.593, 1117.401 691.368, 1107.807 690.224 C 1102.138 689.548, 1089.251 687.349, 1079.169 685.337 L 1060.838 681.679 1061.505 678.089 C 1061.872 676.115, 1063.097 672.345, 1064.226 669.712 C 1066.163 665.195, 1066.181 664.853, 1064.546 663.657 C 1063.025 662.545, 1064.025 661.820, 1072.721 657.729 C 1078.171 655.166, 1085.900 651.677, 1089.895 649.977 L 1097.161 646.885 1106.830 648.017 C 1112.149 648.640, 1118.188 649.518, 1120.250 649.968 L 1124 650.787 1124.009 647.144 C 1124.013 645.140, 1124.297 641.173, 1124.639 638.330 L 1125.260 633.160 1111.804 632.830 L 1098.348 632.500 1088.472 626 C 1080.394 620.683, 1071.816 614.479, 1063.381 607.851 C 1062.589 607.229, 1062.056 609.052, 1061.561 614.083 M 118.358 610.954 C 112.038 612.461, 108.529 615.664, 103.438 624.572 C 94.681 639.897, 89.920 643.418, 84.391 638.657 C 81.764 636.396, 81.502 635.590, 81.519 629.834 C 81.535 624.857, 82.109 622.482, 84.199 618.750 L 86.859 614 83.680 613.888 C 81.931 613.827, 78.984 613.603, 77.132 613.391 L 73.764 613.005 74.190 625.753 C 74.667 640.041, 76.270 645.182, 81.887 650.454 C 84.538 652.942, 86.033 653.471, 91.361 653.810 C 101.392 654.449, 105.330 651.314, 112.477 637 C 116.753 628.438, 119.605 625.165, 123.414 624.450 C 127.798 623.628, 130.810 625.302, 132.585 629.548 C 134.776 634.794, 134.364 640.001, 131.411 644.346 C 129.987 646.441, 128.975 648.283, 129.161 648.439 C 129.347 648.595, 132.088 649.014, 135.250 649.370 L 141 650.017 141 641.558 C 141 625.312, 137.185 615.350, 129.654 611.930 C 125.233 609.923, 123.361 609.761, 118.358 610.954 M 550.571 639.571 C 549.534 640.609, 549 642.963, 549 646.500 C 549 655.650, 544.523 655, 607.515 655 L 662.887 655 664.443 652.777 C 666.710 649.541, 666.465 642.465, 664 640 C 662.049 638.049, 660.667 638, 607.071 638 C 558.470 638, 551.962 638.181, 550.571 639.571 M 139.569 657.888 C 138.301 659.940, 113.107 665.330, 90.062 668.480 C 83.771 669.339, 78.492 670.175, 78.331 670.336 C 77.917 670.750, 80.617 685.951, 81.211 686.544 C 81.480 686.813, 86.380 685.924, 92.100 684.569 C 97.820 683.213, 104.147 681.813, 106.160 681.458 L 109.819 680.811 111.010 686.547 C 111.665 689.701, 112.268 694.339, 112.350 696.853 L 112.500 701.424 102.500 703.169 C 97 704.129, 90.887 704.933, 88.917 704.957 C 86.946 704.981, 85.081 705.252, 84.773 705.560 C 84.465 705.868, 84.835 708.456, 85.595 711.310 C 86.354 714.165, 86.982 717.962, 86.988 719.750 C 86.995 721.538, 87.145 723, 87.322 723 C 87.499 723, 89.636 722.334, 92.072 721.520 C 98.252 719.455, 124.048 714.460, 139.053 712.423 L 151.605 710.718 150.041 702.431 C 149.181 697.873, 148.183 693.850, 147.824 693.491 C 147.465 693.132, 146.120 693.404, 144.836 694.095 C 142.823 695.178, 121.731 700.228, 121.452 699.693 C 121.397 699.587, 120.597 695.890, 119.676 691.477 C 118.062 683.751, 117.572 679, 118.390 679 C 118.604 679, 122.316 678.358, 126.640 677.573 C 130.963 676.788, 136.696 675.904, 139.379 675.610 C 142.063 675.316, 144.411 674.922, 144.597 674.736 C 144.784 674.550, 144.218 670.483, 143.339 665.698 C 141.853 657.605, 140.928 655.689, 139.569 657.888 M 546 676 C 543.535 678.465, 543.290 685.541, 545.557 688.777 L 547.113 691 606.985 691 C 674.983 691, 670 691.666, 670 682.584 C 670 673.351, 674.752 674, 607.171 674 C 549.333 674, 547.955 674.045, 546 676 M 830.500 697.984 C 828.676 700.009, 828.473 701.860, 828.190 719 L 827.881 737.795 831.044 741.397 C 833.953 744.710, 834.648 745, 839.681 745 C 844.359 745, 845.566 744.588, 847.991 742.163 C 851.658 738.496, 852.324 733.930, 851.853 715.706 C 851.536 703.443, 851.196 700.962, 849.491 698.443 L 847.500 695.500 847.162 698.500 C 846.661 702.936, 845.275 704, 840 704 C 834.767 704, 833.346 702.935, 832.838 698.631 L 832.500 695.763 830.500 697.984 M 517 712.694 C 514.273 713.669, 513 716.323, 513 721.036 C 513 729.692, 504.782 729, 607.629 729 C 677.051 729, 698.884 728.716, 699.800 727.800 C 700.460 727.140, 701 724.016, 701 720.857 C 701 711.201, 709.388 711.989, 607.527 712.079 C 558.562 712.122, 517.825 712.399, 517 712.694 M 1042.942 725.880 L 1040.384 734.749 1047.090 735.372 C 1053.964 736.011, 1085.521 744.909, 1096.802 749.389 C 1101.243 751.153, 1103.213 751.539, 1103.472 750.696 C 1103.675 750.038, 1104.789 746.441, 1105.949 742.701 C 1107.109 738.962, 1107.825 735.526, 1107.540 735.065 C 1107.255 734.604, 1105.330 733.925, 1103.261 733.556 C 1094.269 731.953, 1074.369 726.536, 1060.647 721.957 C 1052.478 719.231, 1045.728 717.003, 1045.647 717.006 C 1045.566 717.010, 1044.349 721.003, 1042.942 725.880 M 92.673 741.542 C 94.052 745.644, 95.478 748.995, 95.840 748.988 C 96.203 748.982, 98.750 748.386, 101.500 747.664 C 104.250 746.942, 109.044 746.242, 112.153 746.108 L 117.805 745.864 119.848 751.322 C 123.396 760.806, 123.215 761.883, 117.500 765.273 C 114.750 766.904, 110.344 769.367, 107.709 770.746 C 105.074 772.125, 103.134 773.758, 103.398 774.376 C 103.663 774.994, 105.073 779.259, 106.532 783.854 L 109.185 792.208 113.342 787.998 C 117.620 783.666, 149.002 761.087, 159.264 754.958 C 163.305 752.545, 164.855 751.065, 164.449 750.008 C 164.131 749.179, 162.928 745.800, 161.776 742.500 L 159.682 736.500 138.091 736.633 C 118.509 736.753, 99.824 735.909, 92.833 734.587 L 90.165 734.083 92.673 741.542 M 1035.862 747.750 C 1034.748 750.362, 1033.241 753.850, 1032.513 755.500 C 1026.787 768.488, 1028.071 779.372, 1035.946 784.583 C 1044.749 790.409, 1052.627 788.844, 1066.297 778.556 C 1075.218 771.841, 1079.198 770.795, 1083.362 774.070 C 1085.878 776.050, 1086.168 776.821, 1085.757 780.463 C 1085.181 785.573, 1080.852 792.310, 1076.360 795.086 C 1074.505 796.233, 1073.247 797.591, 1073.565 798.104 C 1073.882 798.618, 1076.298 800.131, 1078.934 801.466 L 1083.726 803.895 1087.528 795.697 C 1094.542 780.571, 1095.552 773.838, 1091.929 766.353 C 1089.547 761.434, 1085.207 758.376, 1079.251 757.424 C 1073.148 756.448, 1071.342 757.205, 1060.027 765.480 C 1051.003 772.080, 1049.219 773, 1045.445 773 C 1041.991 773, 1040.738 772.482, 1039.073 770.365 C 1036.603 767.226, 1036.459 764.230, 1038.538 759.254 C 1040.411 754.772, 1042.761 752.053, 1045.750 750.910 C 1046.987 750.437, 1047.999 749.701, 1047.998 749.275 C 1047.996 748.463, 1039.804 743, 1038.589 743 C 1038.203 743, 1036.976 745.138, 1035.862 747.750 M 125 745.322 C 125 746.363, 128.395 755.644, 129.036 756.353 C 129.713 757.103, 137.982 752.136, 144.885 746.832 C 147.240 745.023, 147.131 745, 136.135 745 C 130.011 745, 125 745.145, 125 745.322 M 163.755 779.005 C 155.642 784.015, 130.048 795.701, 119.400 799.256 L 113.182 801.332 116.229 807.511 L 119.276 813.690 129.388 807.518 C 134.950 804.124, 143.100 799.634, 147.500 797.542 C 151.900 795.450, 156.850 793.060, 158.500 792.232 C 161.404 790.775, 161.449 790.787, 159.906 792.613 C 158.249 794.574, 152.535 802.795, 138.167 823.893 L 129.727 836.287 132.440 841.643 C 133.931 844.590, 135.501 847, 135.927 847 C 136.354 847, 143.857 843.454, 152.601 839.121 C 165.516 832.720, 182.495 825.432, 193.190 821.699 C 194.703 821.171, 194.575 820.477, 191.980 815.121 L 189.080 809.133 180.022 814.594 C 170.263 820.477, 153.714 829.041, 153.162 828.493 C 152.708 828.042, 171.109 801.293, 174.483 797.500 C 180.462 790.778, 180.420 791.135, 176.267 782.171 C 174.195 777.700, 172.275 774.082, 172 774.131 C 171.725 774.181, 168.015 776.374, 163.755 779.005 M 456.200 775.200 C 455.315 776.085, 455 785.133, 455 809.700 C 455 841.667, 455.080 843.080, 457 845 C 458.982 846.982, 460.333 847, 609.277 847 C 743.672 847, 759.790 846.835, 761.777 845.443 C 763.998 843.888, 764 843.864, 764 810.598 C 764 779.619, 763.873 777.195, 762.171 775.655 C 760.487 774.130, 748.414 774, 608.871 774 C 492.394 774, 457.123 774.277, 456.200 775.200 M 477 788.358 L 469.500 790.534 469.195 795.267 C 469.028 797.870, 469.028 799.995, 469.195 799.988 C 469.363 799.982, 471.975 799.312, 475 798.500 C 484.739 795.886, 484 794.489, 484 815.500 L 484 834 492.018 834 L 500.036 834 499.768 810.250 L 499.500 786.500 492 786.340 C 486.856 786.231, 482.144 786.865, 477 788.358 M 521.073 788.635 C 519.442 790.708, 519 792.705, 519 798 C 519 803.295, 519.442 805.292, 521.073 807.365 C 522.212 808.814, 522.674 810, 522.098 810 C 521.522 810, 520.318 811.418, 519.421 813.152 C 516.971 817.890, 517.796 829.239, 520.809 832.255 C 522.997 834.445, 523.669 834.508, 548.276 834.807 C 562.149 834.976, 574.988 834.839, 576.806 834.502 C 582.660 833.416, 584 831.078, 584 821.955 C 584 814.800, 583.735 813.644, 581.605 811.514 C 579.264 809.173, 579.252 809.082, 581.105 807.405 C 582.651 806.006, 583 804.278, 583 798.019 C 583 791.294, 582.715 790.081, 580.686 788.174 C 578.425 786.050, 577.733 786, 550.758 786 L 523.145 786 521.073 788.635 M 603.972 787.822 C 602.098 789.339, 601.641 790.911, 601.235 797.241 C 600.628 806.699, 601.475 811.433, 604.235 814.004 C 606.243 815.875, 607.774 816, 628.670 816 L 650.962 816 651.570 818.421 C 651.904 819.752, 652.015 821.665, 651.816 822.671 C 651.476 824.392, 649.964 824.488, 626.228 824.290 C 603.010 824.097, 601 824.216, 601.004 825.790 C 601.011 829.286, 604.797 833.871, 608.202 834.510 C 610.016 834.850, 623.128 834.987, 637.340 834.814 C 663.116 834.501, 663.184 834.494, 665.090 832.139 C 666.822 829.998, 667 827.986, 667 810.524 C 667 792.559, 666.861 791.093, 664.927 788.635 L 662.855 786 634.538 786 C 608.636 786, 606.030 786.155, 603.972 787.822 M 687 788 C 685.134 789.866, 685 791.333, 685 809.889 C 685 827.980, 685.173 829.992, 686.911 832.139 L 688.822 834.500 717.499 834.500 L 746.176 834.500 748.088 832.139 C 750.842 828.739, 750.866 810.684, 748.122 807.115 L 746.287 804.730 725.174 804.916 C 700.996 805.129, 699.723 804.837, 700.194 799.185 L 700.500 795.500 716.924 795.224 C 727.188 795.052, 733.733 795.333, 734.374 795.974 C 734.938 796.538, 738.685 797, 742.700 797 L 750 797 750 793.689 C 750 791.738, 749.162 789.478, 747.961 788.189 C 745.956 786.036, 745.452 786, 717.461 786 C 690.333 786, 688.906 786.094, 687 788 M 1022.561 792.050 C 1020.944 792.533, 1018.434 794.320, 1016.981 796.022 C 1014.431 799.011, 998.434 828.904, 999.148 829.349 C 999.342 829.469, 1001.300 830.168, 1003.500 830.901 C 1009.241 832.815, 1037.946 847.345, 1048.276 853.566 L 1057.053 858.851 1061.026 850.948 C 1063.212 846.601, 1065 842.858, 1065 842.631 C 1065 842.403, 1063.763 841.913, 1062.250 841.541 C 1060.737 841.169, 1054.675 838.580, 1048.778 835.789 L 1038.056 830.714 1039.778 827.751 C 1041.885 824.125, 1045.170 822.746, 1049.910 823.495 C 1051.885 823.807, 1055.300 824.320, 1057.500 824.635 C 1059.700 824.950, 1063.719 825.836, 1066.432 826.604 C 1069.144 827.372, 1071.702 828, 1072.117 828 C 1072.532 828, 1074.230 825.326, 1075.891 822.058 C 1077.552 818.790, 1079.476 815.210, 1080.168 814.103 C 1080.859 812.997, 1081.216 811.901, 1080.962 811.669 C 1080.708 811.437, 1076.450 810.974, 1071.500 810.640 C 1066.550 810.306, 1059.249 809.741, 1055.277 809.384 C 1049.629 808.877, 1047.541 809.071, 1045.702 810.275 C 1043.359 811.811, 1043.351 811.803, 1043.281 807.366 C 1043.188 801.444, 1039.472 795.891, 1033.750 793.121 C 1029.057 790.849, 1027.181 790.670, 1022.561 792.050 M 534.691 795.643 C 533.542 796.791, 533.916 803.516, 535.200 804.800 C 536.723 806.323, 566.110 806.490, 567.615 804.985 C 568.177 804.423, 568.378 802.079, 568.065 799.735 L 567.500 795.500 551.441 795.226 C 542.608 795.076, 535.070 795.263, 534.691 795.643 M 617.667 795.667 C 617.300 796.033, 617 798.519, 617 801.190 L 617 806.047 634.250 805.774 L 651.500 805.500 651.828 802.629 C 652.009 801.050, 651.887 798.688, 651.559 797.379 L 650.962 795 634.648 795 C 625.675 795, 618.033 795.300, 617.667 795.667 M 1019.500 807.110 C 1018.400 807.645, 1016.478 809.951, 1015.228 812.234 C 1012.492 817.231, 1012.403 817.114, 1023.705 823.315 L 1031.911 827.816 1033.955 823.592 C 1035.080 821.269, 1036 818.446, 1036 817.319 C 1036 814.259, 1032.182 809.987, 1027.579 807.896 C 1022.979 805.807, 1022.308 805.742, 1019.500 807.110 M 535.250 814.662 C 534.487 814.970, 534 817.090, 534 820.107 L 534 825.047 551.250 824.774 L 568.500 824.500 568.799 819.880 C 569.065 815.781, 568.839 815.190, 566.799 814.643 C 564.080 813.915, 537.062 813.931, 535.250 814.662 M 700.411 815.371 C 700.112 816.151, 700.009 818.524, 700.183 820.645 L 700.500 824.500 717.500 824.500 L 734.500 824.500 734.500 819.500 L 734.500 814.500 717.728 814.226 C 703.984 814.001, 700.858 814.208, 700.411 815.371 M 988.500 845.231 C 985.200 850.291, 980.120 857.760, 977.212 861.829 C 974.304 865.898, 971.829 869.652, 971.712 870.172 C 971.595 870.692, 973.083 871.677, 975.019 872.361 C 979.128 873.814, 1006.001 891.571, 1017.292 900.295 C 1021.821 903.794, 1025.441 905.935, 1025.935 905.408 C 1026.403 904.908, 1030.275 899.325, 1034.540 893 C 1038.805 886.675, 1043.861 879.335, 1045.777 876.690 L 1049.259 871.879 1045.504 868.440 C 1043.438 866.548, 1041.640 865, 1041.508 865 C 1041.376 865, 1040.319 867.587, 1039.158 870.750 C 1037.998 873.913, 1035.555 878.750, 1033.729 881.500 C 1030.886 885.782, 1029.971 886.481, 1027.353 886.369 C 1024.389 886.241, 1010 877.681, 1010 876.044 C 1010 875.066, 1013.466 870.435, 1017.214 866.404 L 1020.093 863.309 1016.481 860.553 C 1014.494 859.038, 1012.748 857.956, 1012.601 858.149 C 1012.454 858.342, 1010.658 861.302, 1008.608 864.727 C 1006.559 868.152, 1004.459 871.216, 1003.941 871.537 C 1003.060 872.081, 988.559 862.714, 987.414 860.862 C 986.702 859.709, 991.918 852.296, 997.436 846.620 L 1001.975 841.949 998.737 839.004 C 996.957 837.384, 995.275 836.052, 995 836.045 C 994.725 836.038, 991.800 840.171, 988.500 845.231 M 181.793 838.988 C 172.761 841.711, 159.831 852.066, 156.021 859.629 C 152.260 867.096, 152.602 873.797, 157.218 883.086 C 161.033 890.760, 173.175 907, 175.098 907 C 175.699 907, 177.609 905.987, 179.342 904.750 C 183.095 902.070, 186.530 900.052, 194.250 895.994 C 197.412 894.331, 200 892.742, 200 892.461 C 200 892.181, 198.438 889.600, 196.529 886.726 C 189.946 876.815, 191.078 877.304, 185.983 882.178 C 183.498 884.555, 179.377 887.602, 176.825 888.949 C 171.425 891.799, 170.203 891.278, 166.844 884.693 C 163.826 878.778, 164.166 872.604, 167.756 868.137 C 174.915 859.230, 189.431 850.913, 197.931 850.847 C 202.303 850.813, 203.810 851.306, 206.842 853.760 C 212.213 858.107, 215.508 865.164, 215.465 872.228 C 215.446 875.403, 215.801 878, 216.255 878 C 216.708 878, 218.844 877.100, 221 876 C 223.156 874.900, 225.613 874, 226.460 874 C 228.658 874, 228.477 873.421, 223.817 865.558 C 214.462 849.771, 206.968 841.759, 199.101 839.134 C 195.243 837.847, 185.840 837.768, 181.793 838.988 M 964.578 879.460 L 959.846 884.999 962.993 887.647 C 966.396 890.511, 973.743 900.184, 981.328 911.787 C 988.173 922.259, 988.196 922.445, 982.369 920.131 C 979.691 919.067, 975.130 917.256, 972.233 916.107 C 964.638 913.092, 948.801 905.109, 946.744 903.259 C 945.778 902.390, 944.862 901.864, 944.709 902.089 C 943.972 903.176, 936.925 911.840, 934.648 914.460 L 932.076 917.419 936.824 918.634 C 943.628 920.376, 959.919 926.616, 979.185 934.860 C 988.361 938.787, 996.236 941.982, 996.685 941.961 C 997.133 941.940, 998.951 939.949, 1000.724 937.538 L 1003.948 933.154 989.356 908.827 C 981.331 895.447, 973.538 882.120, 972.038 879.210 L 969.311 873.920 964.578 879.460 M 230.521 882.969 C 226.416 888.893, 198.323 913.449, 185.138 922.638 C 184.940 922.776, 187.382 925.802, 190.565 929.361 L 196.354 935.833 206.927 925.834 L 217.500 915.836 224.647 923.539 L 231.794 931.242 227.140 935.376 C 224.580 937.649, 219.564 941.724, 215.993 944.431 C 212.422 947.138, 209.323 949.488, 209.107 949.653 C 208.891 949.818, 211.306 952.905, 214.474 956.514 L 220.235 963.075 229.867 953.745 C 238.183 945.692, 257.249 929.348, 266.571 922.280 C 269.125 920.344, 269.306 919.896, 267.988 918.780 C 267.157 918.076, 264.279 914.900, 261.594 911.723 L 256.711 905.946 254.900 908.924 C 253.003 912.044, 239.026 925.978, 237.780 925.992 C 237.383 925.996, 234.122 922.557, 230.532 918.350 C 225.303 912.222, 224.236 910.421, 225.168 909.298 C 226.362 907.859, 239.087 897.454, 243.027 894.694 C 245.224 893.155, 245.221 893.148, 239.198 886.150 L 233.170 879.147 230.521 882.969 M 921.562 926.693 C 917.797 930.190, 914.893 933.180, 915.109 933.337 C 915.324 933.495, 917.750 935.249, 920.500 937.235 C 927.424 942.236, 957.360 973.262, 960.636 978.833 C 960.744 979.016, 963.828 976.284, 967.491 972.763 L 974.150 966.361 970.579 963.930 C 966.255 960.988, 937.961 932.422, 932.391 925.375 L 928.406 920.334 921.562 926.693 M 286.986 939.517 C 285.853 940.882, 277.078 946.418, 265 953.387 C 262.525 954.815, 253.441 959.474, 244.813 963.742 C 236.185 968.009, 229.210 971.764, 229.313 972.087 C 229.416 972.410, 231.920 974.810, 234.877 977.420 L 240.254 982.167 244.377 978.205 C 248.707 974.044, 256.790 968, 258.024 968 C 258.422 968, 261.459 970.419, 264.773 973.376 L 270.798 978.753 266.823 986.079 C 264.637 990.108, 261.987 994.614, 260.935 996.092 L 259.021 998.779 262.261 1001.341 C 264.042 1002.750, 267.295 1005.500, 269.489 1007.452 C 271.683 1009.403, 273.770 1011, 274.128 1011 C 274.485 1011, 275.087 1009.351, 275.465 1007.336 C 276.299 1002.890, 285.743 980.632, 294.544 962.371 C 298.095 955.004, 300.990 948.643, 300.979 948.238 C 300.967 947.832, 299.279 946.271, 297.229 944.768 C 295.178 943.265, 292.316 941.129, 290.869 940.021 C 288.547 938.243, 288.092 938.184, 286.986 939.517 M 902.898 944.183 L 898.297 948.260 904.401 954.380 C 911.493 961.490, 925.448 977.886, 924.885 978.447 C 924.395 978.933, 897.678 968.334, 888.754 964.113 L 882.008 960.922 874.675 966.594 L 867.343 972.266 873.501 978.383 C 876.888 981.747, 881.187 986.525, 883.054 989 C 884.921 991.475, 886.701 993.725, 887.011 994 C 888.065 994.937, 900.595 1012.483, 903.971 1017.750 C 905.822 1020.638, 907.498 1023, 907.694 1023 C 908.453 1023, 918 1015.540, 918 1014.947 C 918 1014.603, 916.538 1012.980, 914.750 1011.341 C 909.979 1006.965, 898.121 994.041, 895.170 990 C 893.764 988.075, 891.496 985.267, 890.130 983.760 C 888.764 982.254, 887.838 980.839, 888.073 980.616 C 888.308 980.393, 896.375 983.357, 906 987.201 C 915.625 991.045, 926.823 995.500, 930.885 997.100 L 938.271 1000.010 942.541 996.255 C 944.890 994.190, 946.852 992.050, 946.901 991.500 C 946.950 990.950, 945.753 989.150, 944.241 987.500 C 937.036 979.639, 919.649 956.874, 913.119 946.750 C 910.724 943.038, 908.480 940.024, 908.133 940.054 C 907.785 940.083, 905.429 941.941, 902.898 944.183 M 277.500 955.328 C 274.750 957.013, 270.554 959.584, 268.176 961.041 L 263.852 963.690 268.816 967.846 L 273.780 972.002 278.432 962.376 C 280.991 957.082, 282.953 952.641, 282.792 952.507 C 282.631 952.373, 280.250 953.643, 277.500 955.328 M 319.010 966.641 C 317.194 971.714, 309.100 984.444, 301.298 994.500 C 300.017 996.150, 298.628 997.950, 298.210 998.500 C 290.782 1008.271, 287.915 1011.825, 286.544 1012.963 C 282.539 1016.288, 282.806 1017.581, 288.280 1021.364 C 291.151 1023.349, 294.436 1025.658, 295.581 1026.496 C 297.585 1027.963, 297.852 1027.697, 302.854 1019.260 C 309.420 1008.184, 328.898 981.212, 333.036 977.468 C 334.116 976.490, 335 975.357, 335 974.949 C 335 974.542, 332.637 972.714, 329.750 970.887 C 326.863 969.060, 324.275 967.326, 324 967.033 C 323.725 966.740, 322.720 965.889, 321.767 965.141 C 320.231 963.937, 319.917 964.108, 319.010 966.641 M 855.233 980.430 C 852.336 982.229, 849.665 984.001, 849.298 984.369 C 848.931 984.736, 850.255 986.716, 852.240 988.768 C 858.573 995.314, 876 1025.480, 876 1029.897 C 876 1036.074, 868.535 1042.500, 861.358 1042.500 C 858.079 1042.500, 856.457 1041.901, 854.590 1040 C 851.586 1036.941, 839.831 1017.611, 833.508 1005.331 L 828.854 996.292 821.070 1000.887 L 813.287 1005.482 817.035 1009.991 C 820.604 1014.284, 831.228 1031.176, 835.500 1039.349 C 840.176 1048.296, 847.182 1054, 853.493 1054 C 857.441 1054, 865.915 1050.688, 872.075 1046.738 C 882.224 1040.229, 886.913 1032.708, 885.512 1025.185 C 885.134 1023.158, 880.607 1013.900, 875.450 1004.610 C 870.294 995.321, 865.076 985.309, 863.854 982.360 C 862.632 979.412, 861.377 977.036, 861.066 977.079 C 860.755 977.123, 858.130 978.631, 855.233 980.430 M 366 996.963 C 366 998.043, 365.135 1001.121, 364.077 1003.804 C 362.035 1008.986, 346.305 1037.565, 341.505 1044.815 C 337.122 1051.435, 331.482 1053.544, 325.475 1050.807 C 322.530 1049.465, 321.044 1050.730, 321.015 1054.604 C 321.003 1056.356, 322.215 1057.069, 328.250 1058.857 C 337.261 1061.528, 342.951 1061.576, 347.956 1059.023 C 352.651 1056.627, 353.740 1055.110, 362.852 1038.271 C 373.798 1018.042, 379.106 1008.944, 381.828 1005.744 C 382.649 1004.778, 383.136 1003.841, 382.911 1003.661 C 382.103 1003.019, 366.838 995, 366.423 995 C 366.190 995, 366 995.883, 366 996.963 M 392.114 1014.766 C 390.665 1021, 381.666 1041.237, 373.033 1057.678 L 367.163 1068.855 374.685 1072.428 C 378.823 1074.392, 382.498 1075.997, 382.854 1075.993 C 383.209 1075.989, 384.324 1073.401, 385.331 1070.243 C 387.577 1063.200, 399.276 1037.523, 405.463 1026.059 C 407.969 1021.417, 409.677 1017.304, 409.259 1016.919 C 408.842 1016.534, 405.099 1014.664, 400.942 1012.763 L 393.383 1009.307 392.114 1014.766 M 772.535 1023.147 C 754.541 1029.035, 747.943 1033.633, 743.358 1043.479 C 739.369 1052.044, 740.660 1063.010, 747.166 1075.827 C 756.329 1093.880, 770.162 1096.367, 795.500 1084.514 C 807.139 1079.069, 806.775 1079.762, 803.181 1069.920 C 801.490 1065.289, 799.566 1059.250, 798.905 1056.500 C 798.245 1053.750, 797.608 1051.374, 797.490 1051.220 C 797.195 1050.838, 782.692 1056.135, 781.721 1056.980 C 781.293 1057.352, 781.755 1058.747, 782.748 1060.079 C 785.987 1064.423, 789 1072.144, 789 1076.098 C 789 1078.543, 788.396 1079.353, 785.750 1080.453 C 773.086 1085.716, 764.608 1079.789, 758.415 1061.343 C 752.971 1045.125, 756.348 1035.138, 768.370 1031.900 C 772.511 1030.785, 782.041 1031.099, 785.214 1032.454 C 786.750 1033.110, 786.864 1032.631, 786.316 1027.843 C 785.240 1018.448, 786.051 1018.724, 772.535 1023.147 M 434.980 1029.133 C 434.941 1031.836, 413.029 1059.344, 398.798 1074.557 C 395.455 1078.130, 392.896 1081.190, 393.110 1081.356 C 393.945 1082.004, 407.172 1086.155, 407.387 1085.837 C 407.512 1085.652, 409.028 1082.575, 410.756 1079 C 412.483 1075.425, 414.941 1071.091, 416.218 1069.368 L 418.539 1066.236 426.020 1068.947 L 433.500 1071.659 433.565 1075.563 C 433.601 1077.711, 433.047 1082.821, 432.334 1086.920 C 431.622 1091.018, 431.236 1094.569, 431.477 1094.810 C 431.845 1095.178, 441.097 1098.609, 447.207 1100.642 C 448.769 1101.163, 448.912 1099.831, 448.902 1084.855 C 448.892 1069.347, 450.423 1040.434, 451.543 1034.971 C 452.027 1032.610, 451.644 1032.322, 445.781 1030.644 C 435.560 1027.720, 435.002 1027.642, 434.980 1029.133 M 719.206 1041.403 C 716.295 1042.024, 713.899 1042.873, 713.882 1043.290 C 713.865 1043.708, 715.218 1048.201, 716.889 1053.275 C 719.431 1060.995, 722.803 1073.479, 724.474 1081.355 C 724.995 1083.810, 708.952 1066.809, 700.324 1055.763 C 694.903 1048.822, 693.089 1047.134, 691.500 1047.552 C 690.400 1047.842, 686.360 1048.764, 682.523 1049.600 C 678.685 1050.437, 675.417 1051.250, 675.260 1051.406 C 675.104 1051.563, 675.907 1053.797, 677.046 1056.371 C 680.592 1064.387, 688 1100.522, 688 1109.802 C 688 1112.046, 688.349 1114.098, 688.776 1114.362 C 689.574 1114.855, 700.830 1112.503, 701.664 1111.669 C 701.920 1111.414, 700.809 1107.446, 699.196 1102.852 C 697.583 1098.259, 695.050 1089.550, 693.567 1083.500 C 692.084 1077.450, 690.471 1070.925, 689.981 1069 L 689.091 1065.500 691.062 1067.881 C 694.459 1071.984, 709.154 1088.056, 717.481 1096.774 C 721.871 1101.370, 725.749 1105.593, 726.098 1106.159 C 726.516 1106.834, 728.748 1106.573, 732.617 1105.395 C 735.852 1104.410, 738.628 1103.528, 738.783 1103.435 C 738.939 1103.342, 738.158 1099.944, 737.046 1095.883 C 733.980 1084.677, 729.196 1060.759, 727.826 1049.785 C 727.125 1044.166, 726.157 1040.059, 725.553 1040.138 C 724.974 1040.214, 722.118 1040.783, 719.206 1041.403 M 429.206 1051.379 C 425.793 1055.987, 423 1059.996, 423 1060.287 C 423 1060.578, 425.700 1061.728, 429 1062.843 L 435 1064.869 435.036 1059.684 C 435.056 1056.833, 435.334 1051.912, 435.654 1048.750 C 435.974 1045.588, 436.050 1043, 435.824 1043 C 435.597 1043, 432.619 1046.770, 429.206 1051.379 M 483.275 1045.971 C 473.666 1048.254, 467.185 1057.101, 463.583 1072.850 C 459.286 1091.638, 465.011 1103.768, 480.586 1108.881 C 502.402 1116.042, 516.596 1110.054, 522.969 1091 C 525.752 1082.682, 526.694 1070.551, 525.022 1064.579 C 522.435 1055.340, 513.309 1048.441, 500.566 1046.093 C 493.925 1044.870, 488.084 1044.828, 483.275 1045.971 M 488.159 1056.627 C 479.934 1064.896, 475.162 1087.813, 479.752 1097 C 481.876 1101.253, 486.971 1103.996, 492.750 1103.998 C 496.337 1104, 497.591 1103.409, 500.791 1100.209 C 505.184 1095.816, 508.591 1086.693, 509.986 1075.586 C 511.783 1061.274, 507.767 1054.060, 497.528 1053.211 C 492.205 1052.769, 491.876 1052.889, 488.159 1056.627 M 632.258 1055.548 C 620.327 1057.621, 612.692 1064.078, 609.856 1074.491 C 608.233 1080.447, 609.349 1098.411, 611.709 1104.335 C 615.944 1114.963, 622.788 1119.961, 634.234 1120.783 C 646.930 1121.694, 660.235 1117.335, 665.351 1110.589 C 669.662 1104.903, 671.296 1097.812, 670.757 1087.127 C 669.457 1061.385, 657.083 1051.235, 632.258 1055.548 M 554.551 1059.508 C 554.165 1062.079, 553.996 1064.328, 554.175 1064.505 C 554.354 1064.682, 556.525 1064.435, 559 1063.957 C 561.475 1063.478, 565.682 1063.068, 568.349 1063.044 L 573.198 1063 572.527 1081.750 C 572.158 1092.063, 571.442 1104.325, 570.936 1109 C 569.453 1122.707, 568.731 1121.500, 578.413 1121.500 L 586.824 1121.500 587.321 1093.174 C 587.594 1077.595, 588.088 1064.579, 588.418 1064.248 C 589.063 1063.604, 601.391 1065.350, 604.181 1066.480 C 605.500 1067.014, 606.091 1066.336, 606.925 1063.330 C 607.510 1061.224, 607.991 1059.009, 607.994 1058.408 C 607.998 1057.667, 600.203 1057.097, 583.750 1056.634 C 570.413 1056.259, 558.544 1055.700, 557.376 1055.392 C 555.496 1054.897, 555.172 1055.370, 554.551 1059.508 M 630.549 1065.091 C 626.390 1068.742, 624.750 1073.799, 624.793 1082.832 C 624.864 1097.905, 627.608 1107.125, 633.286 1111.364 C 636.783 1113.975, 644.670 1114.102, 648.476 1111.608 C 652.946 1108.679, 655.341 1101.814, 655.238 1092.227 C 655.021 1072.092, 649.600 1062, 639 1062 C 634.915 1062, 633.466 1062.530, 630.549 1065.091" stroke="none" fill="#b62537" fill-rule="evenodd"/><path d="M 665.407 206 C 665.407 215.075, 665.559 218.787, 665.744 214.250 C 665.929 209.713, 665.929 202.287, 665.744 197.750 C 665.559 193.213, 665.407 196.925, 665.407 206" stroke="none" fill="#b4243c" fill-rule="evenodd"/><path d="M 198.299 534.745 C 203.139 534.929, 210.789 534.928, 215.299 534.743 C 219.810 534.558, 215.850 534.408, 206.500 534.409 C 197.150 534.410, 193.460 534.562, 198.299 534.745 M 985.750 534.744 C 990.288 534.929, 997.712 534.929, 1002.250 534.744 C 1006.788 534.559, 1003.075 534.407, 994 534.407 C 984.925 534.407, 981.212 534.559, 985.750 534.744 M 712.302 804.746 C 717.693 804.926, 726.243 804.925, 731.302 804.744 C 736.361 804.563, 731.950 804.416, 721.500 804.417 C 711.050 804.418, 706.911 804.566, 712.302 804.746 M 543.250 814.743 C 547.513 814.931, 554.487 814.931, 558.750 814.743 C 563.013 814.556, 559.525 814.402, 551 814.402 C 542.475 814.402, 538.987 814.556, 543.250 814.743" stroke="none" fill="#b42434" fill-rule="evenodd"/></svg>