<svg width="430" height="130" xmlns="http://www.w3.org/2000/svg" version="1.1">

 <g>
  <title>Layer 1</title>
  <path id="svg_1" fill-rule="evenodd" fill="#ffffff" d="m197.794,77.39665l-0.294,7.25l-7.181,0.5c-8.043,0.56 -11.491,2.441 -14.784,8.065c-2.749,4.694 -2.532,12.586 0.48,17.459c3.5,5.664 8.406,7.428 20.735,7.454l10.25,0.022l0,-24l0,-24l-4.456,0l-4.456,0l-0.294,7.25m16.206,19.685c0,7.114 0.431,14.068 0.957,15.452c1.649,4.338 5.736,5.613 17.993,5.613l11.05,0l0,-17l0,-17l-4.5,0l-4.5,0l0,12.55l0,12.55l-5.75,-0.3l-5.75,-0.3l-0.281,-12.25l-0.281,-12.25l-4.469,0l-4.469,0l0,12.935m-26,-3.249c-3.395,1.302 -5,3.699 -5,7.469c0,5.686 2.626,7.845 9.542,7.845l5.542,0l-0.292,-7.75l-0.292,-7.75l-4,-0.195c-2.2,-0.107 -4.675,0.064 -5.5,0.381"/>
  <path id="svg_2" fill-rule="evenodd" fill="#242ee2" d="m183.934,2.85565c-9.49,7.985 -9.198,27.257 0.505,33.253c4.092,2.529 13.046,2.787 16.352,0.472c4.075,-2.855 6.209,-8.638 6.209,-16.829c0,-8.8 -1.015,-11.956 -5.258,-16.355c-2.819,-2.923 -3.71,-3.25 -8.861,-3.25c-4.768,0 -6.267,0.454 -8.947,2.709m38.575,-0.538c-4.201,3.305 -6.462,9.267 -6.487,17.111c-0.025,7.696 1.657,12.589 5.573,16.219c2.211,2.049 3.707,2.498 8.301,2.495c10.613,-0.007 16.104,-6.313 16.104,-18.496c0,-7.59 -2.161,-12.774 -7.033,-16.874c-4.159,-3.5 -12.3,-3.725 -16.458,-0.455m-64.57,30.472c-6.294,3.909 -10.217,15.157 -8.043,23.062c3.031,11.017 14.269,16.54 22.922,11.265c9.824,-5.99 9.328,-26.835 -0.803,-33.72c-3.935,-2.674 -10.304,-2.949 -14.076,-0.607m93.845,-0.089c-1.494,0.811 -3.969,3.606 -5.5,6.21c-2.377,4.043 -2.784,5.833 -2.784,12.236c0,5.728 0.481,8.327 2.034,11c2.768,4.762 7.734,7.216 13.588,6.714c9.245,-0.792 14.393,-7.502 14.357,-18.714c-0.035,-11.077 -6.383,-19.05 -15.097,-18.96c-2.135,0.022 -5.104,0.703 -6.598,1.514m-46.939,16.874c-6.174,2.367 -8.565,4.459 -14.835,12.98c-4.008,5.447 -9.563,11.143 -16.49,16.911c-12.306,10.246 -15.715,15.229 -16.341,23.886c-0.233,3.218 0.171,7.974 0.898,10.569c1.681,6.005 8.729,13.278 14.539,15.004c5.448,1.617 16.33,1.493 24.384,-0.278c8.487,-1.867 19.581,-1.867 29.338,0c9.169,1.755 18.599,1.923 23.983,0.428c5.056,-1.404 11.525,-7.359 13.964,-12.855c2.443,-5.504 2.592,-15.061 0.318,-20.489c-0.954,-2.278 -4.618,-6.671 -8.758,-10.5c-13.598,-12.578 -22.383,-21.61 -25.519,-26.242c-5.739,-8.474 -17.042,-12.649 -25.481,-9.414m-7.051,27.822l-0.294,7.25l-7.181,0.5c-8.043,0.56 -11.491,2.441 -14.784,8.065c-2.749,4.694 -2.532,12.586 0.48,17.459c3.5,5.664 8.406,7.428 20.735,7.454l10.25,0.022l0,-24l0,-24l-4.456,0l-4.456,0l-0.294,7.25m16.206,19.685c0,7.114 0.431,14.068 0.957,15.452c1.649,4.338 5.736,5.613 17.993,5.613l11.05,0l0,-17l0,-17l-4.5,0l-4.5,0l0,12.55l0,12.55l-5.75,-0.3l-5.75,-0.3l-0.281,-12.25l-0.281,-12.25l-4.469,0l-4.469,0l0,12.935m-26,-3.249c-3.395,1.302 -5,3.699 -5,7.469c0,5.686 2.626,7.845 9.542,7.845l5.542,0l-0.292,-7.75l-0.292,-7.75l-4,-0.195c-2.2,-0.107 -4.675,0.064 -5.5,0.381"/>
  <path id="svg_3" fill-rule="evenodd" fill="#e20100"/>
  <path id="svg_4" fill-rule="evenodd" fill="#242ce4"/>
  <path id="svg_5" fill-rule="evenodd" fill="#e40404" d="m385.29,57c-0.494,1.887 -1.364,2 -15.343,2l-14.82,0l-0.389,31.75c-0.213,17.463 -0.751,32.787 -1.194,34.054c-0.788,2.255 -0.68,2.297 5.069,2c5.628,-0.291 5.902,-0.43 6.513,-3.304c0.35,-1.65 0.691,-14.812 0.756,-29.25l0.118,-26.25l28.5,0l28.5,0l0,-4.5l0,-4.5l-12.5,0c-11.833,0 -12.5,-0.107 -12.5,-2c0,-1.781 -0.667,-2 -6.094,-2c-5.252,0 -6.165,0.276 -6.616,2m-382.29,35l0,35l21.318,0c23.496,0 29.051,-0.915 34.771,-5.728c7.977,-6.713 7.62,-20.636 -0.698,-27.179c-2.574,-2.025 -2.687,-2.348 -1.126,-3.221c4.711,-2.637 6.752,-15.128 3.492,-21.372c-5.099,-9.765 -14.12,-12.48 -41.507,-12.492l-16.25,-0.008l0,35m123,-27.5l0,6.5l7.5,0l7.5,0l0,-6.5l0,-6.5l-7.5,0l-7.5,0l0,6.5m153,0l0,5.5l12.948,0l12.948,0l-1.046,3l-1.046,3l-10.402,0l-10.402,0l0,25.543l0,25.544l29.088,-0.294l29.088,-0.293l2.412,-2.806c2.394,-2.785 2.412,-2.969 2.412,-25.25l0,-22.444l-13.607,0c-11.997,0 -13.535,-0.187 -13,-1.582c0.334,-0.87 0.607,-2.22 0.607,-3c0,-1.159 2.649,-1.418 14.5,-1.418l14.5,0l0,-5.5l0,-5.5l-34.5,0l-34.5,0l0,5.5m95,6.434c0,0.513 -1.238,1.076 -2.75,1.25c-2.518,0.289 -2.776,0.716 -3.055,5.066c-0.301,4.697 -0.27,4.75 2.75,4.75l3.055,0l0,6.5l0,6.5l19.845,0c22.871,0 23.155,-0.102 23.155,-8.329c0,-4.542 0.084,-4.671 3.055,-4.671c3.02,0 3.051,-0.053 2.75,-4.75c-0.279,-4.35 -0.537,-4.777 -3.055,-5.066c-1.512,-0.174 -2.75,-0.737 -2.75,-1.25c0,-0.514 -2.475,-0.934 -5.5,-0.934c-3.025,0 -5.5,0.45 -5.5,1c0,0.603 -4.167,1 -10.5,1c-6.333,0 -10.5,-0.397 -10.5,-1c0,-0.55 -2.475,-1 -5.5,-1c-3.025,0 -5.5,0.42 -5.5,0.934m-355,7.566l0,6.5l11.277,0c13.159,0 15.723,-1.044 15.723,-6.402c0,-5.707 -2.071,-6.598 -15.329,-6.598l-11.671,0l0,6.5m53,3l0,5.5l14.929,0c16.493,0 18.071,0.53 18.071,6.071l0,2.929l-13.75,0.004c-12.027,0.003 -14.165,0.256 -17.06,2.022c-3.968,2.419 -6.19,7.261 -6.19,13.492c0,5.718 2.15,9.993 6.299,12.522c2.909,1.775 5.139,1.953 24.451,1.956l21.25,0.004l0,-19.266c0,-22.436 -0.636,-24.689 -8.036,-28.484c-4.065,-2.085 -5.696,-2.25 -22.176,-2.25l-17.788,0l0,5.5m54,19.5l0,25l7.5,0l7.5,0l0,-25l0,-25l-7.5,0l-7.5,0l0,25m259,-16.965c0,1.933 0.515,2.021 10.238,1.75c8.822,-0.246 10.285,-0.527 10.574,-2.035c0.302,-1.577 -0.708,-1.75 -10.239,-1.75c-9.967,0 -10.573,0.117 -10.573,2.035m-90,7.465l0,4.5l18.5,0l18.5,0l0,-4.5l0,-4.5l-18.5,0l-18.5,0l0,4.5m75.198,11.75l0.302,5.25l5.974,3.172c3.286,1.745 6.129,3.638 6.319,4.207c0.213,0.638 -2.651,1.147 -7.474,1.328l-7.819,0.293l0,4.5l0,4.5l6.465,0.303c4.977,0.234 8.151,-0.295 13.789,-2.297l7.324,-2.6l7.379,2.547c5.018,1.732 9.502,2.547 14.016,2.547l6.637,0l-0.305,-4.75l-0.305,-4.75l-7,-0.301c-3.85,-0.165 -7.334,-0.635 -7.743,-1.043c-0.409,-0.408 2.404,-2.442 6.25,-4.52l6.993,-3.777l0,-4.929l0,-4.93l-25.552,0l-25.553,0l0.303,5.25m-351.198,2.645l0,7.105l12.345,0c13.77,0 15.655,-0.804 15.655,-6.674c0,-5.584 -2.684,-6.78 -16.105,-7.181l-11.895,-0.356l0,7.106m64.571,1.676c-0.864,0.865 -1.571,2.408 -1.571,3.429c0,4.013 2.58,5 13.071,5l9.929,0l0,-5l0,-5l-9.929,0c-7.692,0 -10.282,0.354 -11.5,1.571m211.429,3.452l0,5.022l18.25,-0.272l18.25,-0.273l0.305,-4.75l0.305,-4.75l-18.555,0l-18.555,0l0,5.023m94.75,-2.255l5.25,2.646l5.25,-2.646l5.25,-2.646l-10.5,0l-10.5,0l5.25,2.646"/>
 </g>
</svg>